<?xml version="1.0" standalone="no"?>
<!DOCTYPE svg PUBLIC "-//W3C//DTD SVG 20010904//EN"
 "http://www.w3.org/TR/2001/REC-SVG-20010904/DTD/svg10.dtd">
<svg version="1.0" xmlns="http://www.w3.org/2000/svg"
 width="700.000000pt" height="700.000000pt" viewBox="0 0 700.000000 700.000000"
 preserveAspectRatio="xMidYMid meet">
<metadata>
Created by potrace 1.11, written by Peter Selinger 2001-2013
</metadata>
<g transform="translate(0.000000,700.000000) scale(0.100000,-0.100000)"
fill="#000000" stroke="none">
<path d="M3282 6989 c-647 -39 -1282 -263 -1813 -640 -306 -217 -615 -529
-836 -844 -601 -857 -783 -1962 -491 -2978 157 -550 448 -1050 853 -1466 772
-794 1859 -1169 2969 -1025 628 81 1221 335 1731 740 140 111 415 386 529 529
711 891 946 2048 640 3150 -100 362 -298 775 -516 1078 -162 225 -452 533
-648 688 -593 470 -1256 724 -2005 769 -187 11 -219 11 -413 -1z m-782 -2354
l0 -855 1000 0 1000 0 0 855 0 855 265 0 265 0 0 -1990 0 -1990 -265 0 -265 0
0 920 0 920 -1000 0 -1000 0 0 -920 0 -920 -265 0 -265 0 0 1990 0 1990 265 0
265 0 0 -855z"/>
</g>
</svg>
