<svg xmlns="http://www.w3.org/2000/svg" viewBox="26 9 282 282" class="portrait-svg" role="img" aria-label="Halil Karaca, a painted portrait in a mosaic"><style>
.pt-strap { fill: #3a3d48; }
.pt-lanyard { fill: #f7f7f5; }
.pt-lid { transform: scaleY(0); opacity: 0; }
.pt-lash { fill: none; stroke: #3f2a24; stroke-width: 1.4; stroke-linecap: round; }
.pt-white { fill: #efe5de; }
.pt-irisc { stroke: #3a5877; stroke-width: .4; }
.pt-pupil { fill: #161a24; }
.pt-lidshadow { fill: none; stroke: rgba(120, 70, 55, .3); stroke-width: 2.2; }
.pt-upper { fill: none; stroke: #4a2f27; stroke-width: 1.2; stroke-linecap: round; }
.pt-lower { fill: none; stroke: rgba(120, 70, 55, .55); stroke-width: .8; stroke-linecap: round; }
.pt-glint { fill: #fff; }
.pt-rim { fill: none; stroke: #1f5fbf; stroke-width: 3; }
.pt-shades-drop { fill: #111; opacity: 0; }
.pt-cig-drop { opacity: 0; }
.pt-cig-filter { fill: #e0913d; }
.pt-cig-paper { fill: #f7f5ef; }
.pt-cig-ash { fill: #9a9a9a; }
.pt-cig-ember { fill: #ff5a2a; }
.pt-smoke-px { fill: #c9ced6; }
</style>
  <defs>
    <filter id="pt-paint" x="-5%" y="-5%" width="110%" height="110%">
      <feTurbulence type="fractalNoise" baseFrequency="0.05" numOctaves="2" seed="4" result="warp"/>
      <feDisplacementMap in="SourceGraphic" in2="warp" scale="0.8" xChannelSelector="R" yChannelSelector="G" result="wobbly"/>
      <feTurbulence type="fractalNoise" baseFrequency="0.9 0.35" numOctaves="2" seed="9" result="grain"/>
      <feColorMatrix in="grain" type="matrix" values="0 0 0 0 0  0 0 0 0 0  0 0 0 0 0  0 0 0 -0.4 0.2" result="grainA"/>
      <feComposite in="grainA" in2="wobbly" operator="in" result="grainIn"/>
      <feBlend in="wobbly" in2="grainIn" mode="multiply"/>
    </filter>
    <clipPath id="pt-medal"><circle cx="167" cy="150" r="138"/></clipPath>
    <filter id="pt-feather" x="-50%" y="-50%" width="200%" height="200%"><feGaussianBlur stdDeviation="3.2"/></filter>
    <mask id="pt-mask-mid" maskUnits="userSpaceOnUse" x="0" y="0" width="340" height="320"><ellipse fill="#fff" filter="url(#pt-feather)" cx="165.4" cy="126.4" rx="41.5" ry="42.5"/></mask>
    <mask id="pt-mask-nose" maskUnits="userSpaceOnUse" x="0" y="0" width="340" height="320"><ellipse fill="#fff" filter="url(#pt-feather)" cx="165.2" cy="129.1" rx="23.6" ry="18.5"/></mask>
    <radialGradient id="pt-irisfill">
      <stop offset="0" stop-color="#9fbfdc"/><stop offset=".6" stop-color="#6690b8"/><stop offset="1" stop-color="#43698f"/>
    </radialGradient>
  </defs>
  <g clip-path="url(#pt-medal)">
    <g class="pt-roundel" data-roundel=""><circle cx="167" cy="150" r="138" fill="#c9ddf0"/></g>
    <g class="pt-person" filter="url(#pt-paint)" transform="translate(0 6)">
      <g class="pt-body">
        <path fill="#e3ac95" d="M143.0 159.5C138.7 162.0 134.7 166.3 132.2 169.0C129.8 171.7 129.3 173.3 128.2 175.5C127.2 177.7 126.4 178.5 126.0 182.0C125.6 185.5 125.0 192.0 126.0 196.5C127.0 201.0 129.6 206.2 131.8 208.8C133.9 211.2 134.7 209.0 138.8 211.5C142.8 214.0 152.2 221.5 156.0 223.8C159.8 226.0 157.2 225.2 161.2 225.0C165.3 224.8 175.2 224.2 180.5 222.8C185.8 221.2 189.9 218.6 193.0 216.0C196.1 213.4 197.5 209.1 199.2 207.0C201.0 204.9 202.0 205.9 203.2 203.2C204.5 200.6 206.2 195.3 206.5 191.2C206.8 187.2 206.2 182.8 204.8 178.8C203.3 174.8 201.1 170.7 198.0 167.2C194.9 163.8 190.3 160.2 186.0 158.0C181.7 155.8 176.9 154.4 172.2 153.8C167.6 153.1 162.9 153.0 158.0 154.0C153.1 155.0 147.3 157.0 143.0 159.5Z"/><path fill="#b37f6b" stroke="#b37f6b" stroke-width=".7" stroke-linejoin="round" d="M137.8 163.2C135.9 165.2 131.3 170.0 129.2 173.5C127.2 177.0 125.8 180.8 125.5 184.5C125.2 188.2 126.4 193.2 127.5 196.0C128.6 198.8 131.4 199.1 132.2 201.2C133.1 203.4 131.7 207.3 132.8 209.0C133.8 210.7 134.5 208.9 138.8 211.5C143.0 214.1 153.2 222.2 158.0 224.5C162.8 226.8 163.4 225.5 167.5 225.0C171.6 224.5 180.0 222.2 182.8 221.5C185.5 220.8 183.8 220.8 183.8 220.5C183.8 220.2 184.6 220.0 182.8 219.8C180.9 219.5 176.8 219.9 172.5 219.2C168.2 218.6 161.0 216.9 157.2 215.8C153.5 214.6 151.5 213.5 149.8 212.5C148.0 211.5 147.1 210.7 146.5 210.0C145.9 209.3 145.8 208.9 146.2 208.5C146.8 208.1 146.8 207.5 149.5 207.5C152.2 207.5 159.5 208.8 162.2 208.8C165.0 208.7 164.5 208.0 165.8 207.0C167.0 206.0 166.8 204.2 169.5 202.5C172.2 200.8 179.4 198.6 181.8 197.0C184.1 195.4 181.6 194.5 183.5 192.8C185.4 191.0 190.2 188.8 193.2 186.2C196.2 183.7 200.0 179.4 201.5 177.2C203.0 175.1 202.4 174.7 202.0 173.2C201.6 171.8 200.3 170.2 199.2 168.8C198.2 167.3 196.6 165.5 195.5 164.8C194.4 164.0 195.4 162.4 192.5 164.0C189.6 165.6 182.2 172.3 178.2 174.2C174.2 176.2 170.7 175.5 168.5 175.5C166.3 175.5 166.4 174.6 165.0 174.5C163.6 174.4 162.6 175.6 160.0 175.0C157.4 174.4 152.0 173.2 149.2 171.0C146.5 168.8 145.0 163.6 143.5 162.0C142.0 160.4 141.5 161.3 140.5 161.5C139.5 161.7 139.6 161.2 137.8 163.2Z M150.5 157.0C150.5 157.6 150.8 158.9 152.0 159.2C153.2 159.6 156.3 159.0 158.0 159.2C159.7 159.5 160.9 161.0 162.2 161.0C163.6 161.0 167.0 160.0 166.0 159.0C165.0 158.0 158.5 155.6 156.2 155.0C154.0 154.4 153.2 155.2 152.2 155.5C151.3 155.8 150.5 156.4 150.5 157.0Z"/><path fill="#855a4b" stroke="#855a4b" stroke-width=".7" stroke-linejoin="round" d="M149.2 216.2C147.6 216.1 150.3 219.0 152.5 219.8C154.7 220.5 162.8 221.1 162.2 220.5C161.7 219.9 150.9 216.4 149.2 216.2Z M126.2 184.5C126.4 186.3 127.2 188.8 127.8 190.0C128.3 191.2 129.0 192.1 129.5 191.8C130.0 191.4 130.9 189.2 131.0 187.8C131.1 186.3 130.2 184.0 130.2 183.0C130.2 182.0 130.7 182.1 131.0 182.0C131.3 181.9 130.7 179.3 132.0 182.5C133.3 185.7 138.0 197.5 139.0 201.0C140.0 204.5 139.0 203.0 138.2 203.5C137.5 204.0 135.2 203.6 134.5 204.0C133.8 204.4 133.6 205.3 133.8 206.0C133.9 206.7 134.1 207.4 135.2 208.0C136.4 208.6 138.9 210.1 140.5 209.8C142.1 209.4 142.0 206.4 144.8 205.8C147.5 205.1 154.8 207.0 156.8 206.0C158.8 205.0 156.5 201.2 156.8 200.0C157.0 198.8 154.5 200.1 158.0 198.5C161.5 196.9 173.9 192.2 178.0 190.2C182.1 188.2 181.5 187.9 182.8 186.5C184.0 185.1 185.6 182.9 185.5 181.8C185.4 180.6 183.8 179.6 182.2 179.5C180.7 179.4 179.8 180.9 176.0 181.0C172.2 181.1 164.0 181.1 159.2 180.2C154.5 179.4 151.0 178.3 147.2 176.0C143.5 173.7 139.0 168.1 137.0 166.5C135.0 164.9 136.2 165.6 135.2 166.2C134.3 166.9 132.6 168.4 131.2 170.5C129.9 172.6 127.8 176.7 127.0 179.0C126.2 181.3 126.1 182.7 126.2 184.5Z"/><path fill="#614238" stroke="#614238" stroke-width=".7" stroke-linejoin="round" d="M138.8 174.5C138.1 175.2 146.0 182.7 147.5 185.0C149.0 187.3 148.1 187.0 148.0 188.2C147.9 189.5 146.2 190.3 146.8 192.2C147.3 194.2 148.0 199.5 151.5 199.8C155.0 200.0 164.3 196.3 168.0 194.0C171.7 191.7 173.1 187.5 173.8 185.8C174.4 184.0 175.5 184.3 171.8 183.5C168.0 182.7 156.8 182.2 151.2 180.8C145.8 179.2 139.4 173.8 138.8 174.5Z"/>
        <path fill="#114bc3" d="M315.5 307.8C314.3 301.5 308.8 289.0 307.0 282.2C305.2 275.5 305.8 271.3 304.8 267.5C303.8 263.7 303.8 263.0 301.0 259.2C298.2 255.5 291.7 248.1 288.0 244.8C284.3 241.4 281.1 240.8 278.8 239.0C276.4 237.2 275.6 234.8 273.8 233.8C271.9 232.7 269.1 233.4 267.5 232.8C265.9 232.1 264.8 231.2 264.0 230.0C263.2 228.8 262.8 227.0 263.0 225.2C263.2 223.5 265.2 221.8 265.2 219.8C265.2 217.8 264.0 215.1 263.0 213.2C262.0 211.4 262.6 211.5 259.0 208.8C255.4 206.0 245.2 201.1 241.5 197.0C237.8 192.9 238.8 187.8 237.0 184.2C235.2 180.8 233.5 178.0 231.0 176.0C228.5 174.0 225.4 172.7 221.8 172.0C218.1 171.3 211.9 172.3 209.2 171.8C206.6 171.2 206.7 169.0 205.8 168.5C204.8 168.0 204.3 168.2 203.8 168.5C203.2 168.8 202.2 169.0 202.2 170.5C202.3 172.0 203.9 174.1 204.2 177.8C204.6 181.4 204.5 189.3 204.2 192.2C204.0 195.2 202.8 194.3 202.8 195.5C202.7 196.7 204.2 198.7 203.8 199.5C203.3 200.3 201.0 200.0 200.0 200.5C199.0 201.0 199.7 199.8 198.0 202.8C196.3 205.7 192.4 215.0 190.0 218.0C187.6 221.0 187.5 220.0 183.5 220.5C179.5 221.0 169.6 220.4 166.2 221.0C162.9 221.6 164.2 223.5 163.2 224.0C162.3 224.5 161.8 224.9 160.8 224.2C159.8 223.6 162.2 223.5 157.2 220.0C152.3 216.5 136.3 206.9 131.2 203.5C126.2 200.1 128.0 202.0 127.0 199.5C126.0 197.0 124.6 192.1 125.0 188.8C125.4 185.4 128.5 182.2 129.2 179.2C130.0 176.2 129.9 172.3 129.8 170.8C129.6 169.2 131.1 167.6 128.2 169.8C125.4 171.9 116.5 179.8 112.8 183.8C109.0 187.7 108.7 191.0 106.0 193.2C103.3 195.5 98.6 196.2 96.8 197.5C94.9 198.8 96.3 199.6 94.8 201.2C93.2 202.9 89.2 206.2 87.5 207.2C85.8 208.3 85.5 208.2 84.5 207.5C83.5 206.8 82.1 204.4 81.8 203.2C81.4 202.1 81.6 201.4 82.2 200.5C82.9 199.6 85.0 198.7 85.5 198.0C86.0 197.3 86.0 197.0 85.2 196.5C84.5 196.0 83.0 195.2 80.8 195.0C78.5 194.8 73.8 195.0 71.8 195.2C69.8 195.5 70.3 195.3 68.8 196.8C67.2 198.2 65.2 201.6 62.2 204.0C59.2 206.4 54.3 208.4 50.8 211.0C47.2 213.6 43.5 215.8 40.8 219.8C38.0 223.7 37.4 228.8 34.2 234.5C31.1 240.2 24.5 248.4 21.8 254.2C19.0 260.1 19.6 265.4 18.0 269.5C16.4 273.6 13.2 275.2 12.2 278.8C11.2 282.3 12.6 287.2 12.0 290.8C11.4 294.2 9.8 297.6 8.8 299.8C7.8 301.9 7.5 303.1 6.0 303.5C4.5 303.9 1.0 299.5 0.0 302.2C-1.0 305.0 -5.0 316.8 0.0 319.8C5.0 322.7 24.8 320.0 30.2 319.8C35.7 319.5 31.9 318.0 32.8 318.0C33.6 318.0 -11.6 319.5 35.2 319.8C82.1 320.0 267.3 321.8 314.0 319.8C360.7 317.8 316.7 314.0 315.5 307.8Z M117.5 264.2C118.3 264.2 120.2 265.2 120.8 266.0C121.3 266.8 121.0 268.0 120.8 268.8C120.5 269.5 120.0 270.5 119.2 270.5C118.5 270.5 116.5 269.5 116.0 268.8C115.5 268.0 115.8 266.8 116.0 266.0C116.2 265.2 116.7 264.2 117.5 264.2Z M59.8 249.8C60.5 250.6 59.6 252.2 59.0 253.2C58.4 254.3 57.5 255.4 56.0 256.0C54.5 256.6 51.7 257.3 50.2 257.0C48.8 256.7 47.7 255.2 47.2 254.2C46.8 253.3 46.9 252.4 47.5 251.5C48.1 250.6 49.5 249.3 50.8 248.8C52.0 248.2 53.2 248.1 54.8 248.2C56.2 248.4 59.0 248.9 59.8 249.8Z M63.2 214.0C65.0 215.0 68.6 220.4 70.5 222.0C72.4 223.6 73.9 223.2 74.8 223.8C75.6 224.3 76.4 224.7 75.8 225.5C75.1 226.3 73.0 228.1 71.0 228.8C69.0 229.4 65.8 228.9 64.0 229.5C62.2 230.1 61.5 233.2 60.5 232.5C59.5 231.8 58.1 228.2 58.0 225.5C57.9 222.8 58.9 217.9 59.8 216.0C60.6 214.1 61.5 213.0 63.2 214.0Z"/><path fill="#0037af" stroke="#0037af" stroke-width=".7" stroke-linejoin="round" d="M173.5 319.8C180.1 321.6 209.4 320.3 216.2 319.8C223.1 319.2 216.8 317.3 214.8 316.5C212.7 315.7 209.5 316.3 203.8 314.8C198.0 313.2 184.5 308.3 180.0 307.2C175.5 306.2 177.8 306.4 176.8 308.5C175.7 310.6 166.9 317.9 173.5 319.8Z M266.8 276.5C265.2 276.5 259.8 278.0 258.5 279.5C257.2 281.0 258.3 284.0 258.8 285.8C259.2 287.5 259.5 291.0 261.0 290.0C262.5 289.0 267.0 281.8 268.0 279.5C269.0 277.2 268.3 276.5 266.8 276.5Z M265.8 267.2C265.2 266.8 264.6 266.5 262.8 266.8C260.9 267.0 255.3 267.1 254.5 269.0C253.7 270.9 256.8 277.0 257.8 278.0C258.7 279.0 259.8 276.3 260.2 275.2C260.8 274.2 259.8 272.5 260.8 271.5C261.7 270.5 264.9 270.0 265.8 269.2C266.6 268.5 266.2 267.7 265.8 267.2Z M258.2 248.8C258.1 249.2 257.7 249.9 259.2 250.2C260.8 250.6 265.8 251.0 267.5 250.8C269.2 250.5 270.0 249.6 269.5 249.0C269.0 248.4 266.0 247.5 264.5 247.2C263.0 247.0 261.3 247.0 260.2 247.2C259.2 247.5 258.4 248.2 258.2 248.8Z M286.2 253.8C283.5 251.2 278.1 247.3 275.8 246.0C273.4 244.7 272.7 245.7 272.0 246.0C271.3 246.3 270.9 246.5 271.8 247.8C272.6 249.0 275.4 251.8 277.2 253.2C279.1 254.7 281.1 254.2 282.8 256.5C284.4 258.8 286.8 261.5 287.0 267.0C287.2 272.5 285.5 283.9 284.2 289.8C283.0 295.6 281.2 299.5 279.2 302.2C277.3 305.0 274.7 305.7 272.8 306.2C270.8 306.8 268.5 304.8 267.5 305.5C266.5 306.2 267.8 309.1 266.8 310.5C265.7 311.9 262.6 313.4 261.0 313.8C259.4 314.1 258.8 313.8 257.2 312.8C255.7 311.7 253.8 308.2 251.5 307.2C249.2 306.2 245.2 307.1 243.2 306.8C241.2 306.4 241.3 305.2 239.5 305.0C237.7 304.8 236.0 304.0 232.5 305.2C229.0 306.5 219.7 309.8 218.5 312.2C217.3 314.7 209.4 318.5 225.2 319.8C241.1 321.0 299.0 322.5 313.5 319.8C328.0 317.0 313.4 309.4 312.2 303.2C311.1 297.1 307.7 286.7 306.5 283.0C305.3 279.3 306.1 281.6 305.0 281.0C303.9 280.4 301.4 280.9 300.0 279.2C298.6 277.6 297.5 272.8 296.5 271.0C295.5 269.2 294.4 270.1 293.8 268.5C293.1 266.9 293.8 264.0 292.5 261.5C291.2 259.0 289.0 256.3 286.2 253.8Z M293.5 276.0C294.2 275.4 294.8 276.0 295.5 277.5C296.2 279.0 297.3 281.2 297.5 285.2C297.7 289.3 297.2 298.3 296.8 301.8C296.3 305.2 295.5 305.7 295.0 305.8C294.5 305.8 293.7 303.6 293.5 302.2C293.3 300.9 294.1 299.2 293.8 297.8C293.4 296.3 291.6 296.5 291.2 293.8C290.9 291.0 291.1 284.2 291.5 281.2C291.9 278.3 292.8 276.6 293.5 276.0Z M258.2 214.2C257.7 214.8 256.5 216.2 257.0 217.5C257.5 218.8 260.4 221.0 261.5 221.8C262.6 222.5 263.2 222.3 263.8 221.8C264.2 221.2 264.5 219.2 264.5 218.2C264.5 217.2 264.2 216.5 263.5 215.8C262.8 215.0 261.4 214.2 260.5 214.0C259.6 213.8 258.8 213.7 258.2 214.2Z M0.0 309.0C-0.4 310.8 -5.0 318.0 0.0 319.8C5.0 321.5 24.8 320.0 30.2 319.8C35.7 319.5 31.9 318.0 32.8 318.0C33.6 318.0 22.2 319.5 35.2 319.8C48.2 320.0 97.8 325.2 110.8 319.8C123.7 314.3 111.9 295.9 112.8 287.0C113.6 278.1 114.8 270.7 115.8 266.2C116.8 261.8 117.9 260.5 118.8 260.5C119.6 260.5 120.4 261.5 121.0 266.0C121.6 270.5 121.8 282.8 122.5 287.2C123.2 291.8 125.2 291.0 125.5 293.0C125.8 295.0 124.4 295.0 124.2 299.5C124.1 304.0 118.8 316.4 124.5 319.8C130.2 323.1 148.0 336.2 158.5 319.8C169.0 303.3 185.2 237.5 187.8 221.0C190.2 204.5 177.4 220.4 173.5 221.0C169.6 221.6 166.8 224.0 164.2 224.5C161.8 225.0 160.5 225.2 158.5 224.0C156.5 222.8 155.8 220.2 152.2 217.2C148.7 214.3 140.1 208.2 137.0 206.2C133.9 204.3 134.6 204.8 133.8 205.5C132.9 206.2 132.1 208.5 131.8 210.8C131.4 213.0 132.3 216.4 131.8 218.8C131.2 221.1 130.1 218.8 128.2 224.8C126.4 230.7 122.0 249.1 120.5 254.2C119.0 259.4 119.6 256.0 119.0 255.8C118.4 255.5 118.3 253.2 117.0 252.8C115.7 252.2 113.0 253.2 111.2 252.8C109.5 252.3 107.8 250.4 106.5 250.0C105.2 249.6 104.7 249.8 103.8 250.2C102.8 250.7 101.5 251.0 101.0 252.8C100.5 254.5 101.5 259.0 101.0 261.0C100.5 263.0 98.0 263.5 97.8 265.0C97.5 266.5 98.6 268.3 99.5 269.8C100.4 271.2 102.8 272.4 103.2 273.8C103.8 275.1 104.0 276.0 102.5 278.0C101.0 280.0 95.4 284.1 94.2 286.0C93.1 287.9 96.9 287.8 95.8 289.2C94.6 290.8 89.2 293.3 87.5 295.0C85.8 296.7 87.6 298.2 85.8 299.2C83.9 300.3 78.9 301.8 76.5 301.5C74.1 301.2 73.2 299.6 71.2 297.5C69.3 295.4 65.9 290.6 65.0 288.8C64.1 286.9 63.1 286.9 65.8 286.5C68.4 286.1 78.6 287.2 81.0 286.2C83.4 285.3 81.4 283.2 80.2 281.0C79.1 278.8 75.7 273.3 74.0 272.8C72.3 272.2 71.4 277.0 70.2 277.5C69.1 278.0 67.5 278.3 67.0 275.8C66.5 273.2 65.1 270.1 67.5 262.2C69.9 254.4 78.6 235.2 81.5 228.8C84.4 222.3 82.7 226.0 85.0 223.8C87.3 221.5 92.5 217.0 95.2 215.0C98.0 213.0 100.1 212.0 101.8 211.8C103.4 211.5 103.4 211.7 105.0 213.5C106.6 215.3 109.6 217.8 111.2 222.5C112.9 227.2 114.1 238.2 115.0 242.0C115.9 245.8 116.0 252.0 116.8 245.2C117.5 238.5 120.2 208.4 119.5 201.2C118.8 194.1 114.3 201.5 112.8 202.2C111.2 203.0 111.0 205.1 110.2 205.8C109.5 206.4 109.0 206.4 108.2 206.2C107.5 206.1 107.0 206.0 106.0 204.8C105.0 203.5 103.7 199.6 102.5 198.5C101.3 197.4 101.4 196.9 99.0 198.2C96.6 199.6 90.6 205.2 88.2 206.8C85.9 208.3 86.1 208.3 85.0 207.8C83.9 207.2 82.0 205.0 81.8 203.2C81.5 201.5 85.3 198.2 83.2 197.2C81.2 196.2 72.0 197.0 69.5 197.2C67.0 197.5 68.3 197.5 68.0 198.5C67.7 199.5 67.9 202.0 67.5 203.0C67.1 204.0 65.8 203.8 65.5 204.8C65.2 205.7 66.1 207.7 66.0 208.5C65.9 209.3 65.8 209.8 65.0 209.5C64.2 209.2 62.7 207.3 61.5 207.0C60.3 206.7 58.8 207.1 57.8 207.5C56.8 207.9 56.2 208.1 55.5 209.5C54.8 210.9 53.5 213.5 53.2 215.8C53.0 218.0 54.3 220.0 53.8 223.0C53.2 226.0 51.0 232.0 50.0 233.5C49.0 235.0 48.2 232.8 47.8 231.8C47.3 230.7 48.0 228.0 47.5 227.2C47.0 226.5 45.7 227.6 45.0 227.2C44.3 226.9 43.5 226.6 43.2 225.2C43.0 223.9 43.8 220.1 43.5 219.2C43.2 218.4 41.7 219.2 41.2 220.0C40.8 220.8 41.6 222.2 41.0 224.2C40.4 226.3 38.6 228.0 37.8 232.5C36.9 237.0 36.5 247.8 36.0 251.0C35.5 254.2 34.9 251.9 34.5 251.8C34.1 251.6 33.6 252.7 33.8 250.2C33.9 247.8 35.4 239.3 35.5 237.0C35.6 234.7 35.0 236.0 34.2 236.2C33.5 236.5 32.5 237.0 31.2 238.8C30.0 240.5 26.9 245.1 26.8 246.8C26.6 248.4 30.0 247.2 30.5 248.5C31.0 249.8 30.3 253.1 29.8 254.2C29.2 255.4 28.0 255.6 27.0 255.5C26.0 255.4 24.4 253.5 23.5 253.5C22.6 253.5 21.8 254.7 21.5 255.5C21.2 256.3 20.3 255.1 21.5 258.5C22.7 261.9 27.5 272.2 28.5 275.8C29.5 279.3 27.2 278.2 27.5 280.0C27.8 281.8 30.0 285.5 30.0 286.8C30.0 288.0 29.3 287.8 27.5 287.2C25.7 286.7 20.8 284.2 19.2 283.2C17.7 282.2 18.2 282.9 18.0 281.2C17.8 279.6 18.6 274.8 18.2 273.5C17.9 272.2 16.8 272.9 15.8 273.8C14.8 274.6 12.9 275.5 12.2 278.8C11.6 282.0 12.5 289.1 11.8 293.2C11.0 297.4 9.3 300.9 7.8 303.5C6.2 306.1 3.8 307.8 2.5 308.8C1.2 309.7 0.4 307.2 0.0 309.0Z M60.5 300.5C61.3 300.2 61.9 300.6 63.2 302.0C64.6 303.4 67.9 307.5 68.8 309.0C69.6 310.5 69.3 310.8 68.5 311.2C67.7 311.7 65.2 312.1 63.8 311.8C62.3 311.4 60.9 310.3 60.0 309.0C59.1 307.7 58.4 305.2 58.5 303.8C58.6 302.3 59.7 300.8 60.5 300.5Z M59.8 249.8C60.5 250.6 59.6 252.2 59.0 253.2C58.4 254.3 57.5 255.4 56.0 256.0C54.5 256.6 51.7 257.3 50.2 257.0C48.8 256.7 47.7 255.2 47.2 254.2C46.8 253.3 46.9 252.4 47.5 251.5C48.1 250.6 49.5 249.3 50.8 248.8C52.0 248.2 53.2 248.1 54.8 248.2C56.2 248.4 59.0 248.9 59.8 249.8Z M62.8 213.8C63.9 214.0 65.5 215.4 66.8 216.8C68.0 218.1 69.2 220.8 70.5 222.0C71.8 223.2 73.9 223.2 74.8 223.8C75.6 224.3 76.4 224.7 75.8 225.5C75.1 226.3 73.0 228.1 71.0 228.8C69.0 229.4 65.8 228.9 64.0 229.5C62.2 230.1 61.5 233.2 60.5 232.5C59.5 231.8 58.1 228.1 58.0 225.2C57.9 222.4 59.0 217.4 59.8 215.5C60.5 213.6 61.6 213.5 62.8 213.8Z M128.0 173.2C127.2 172.1 125.5 173.1 124.2 173.8C123.0 174.4 121.9 174.8 120.8 177.0C119.6 179.2 119.0 184.3 117.5 186.8C116.0 189.2 112.8 190.0 112.0 191.5C111.2 193.0 111.3 195.0 112.5 196.0C113.7 197.0 117.7 197.6 119.2 197.5C120.8 197.4 120.1 198.3 121.8 195.5C123.4 192.7 128.0 184.2 129.0 180.5C130.0 176.8 128.8 174.4 128.0 173.2Z M222.2 173.2C219.0 172.6 210.7 172.2 207.8 172.5C204.8 172.8 205.2 171.9 204.8 175.0C204.2 178.1 204.0 187.3 204.8 191.0C205.5 194.7 206.9 194.9 209.0 197.0C211.1 199.1 215.8 202.2 217.2 203.8C218.7 205.3 218.7 204.5 217.8 206.2C216.8 208.0 213.1 213.0 211.5 214.5C209.9 216.0 209.0 214.6 208.0 215.0C207.0 215.4 206.0 215.7 205.5 217.0C205.0 218.3 206.0 220.8 205.0 223.0C204.0 225.2 204.0 217.8 199.8 230.5C195.5 243.2 182.7 287.4 179.2 299.5C175.8 311.6 178.6 302.1 179.2 303.0C179.9 303.9 181.5 304.7 183.0 305.0C184.5 305.3 185.9 305.9 188.2 304.8C190.6 303.6 193.6 299.9 197.2 298.2C200.9 296.6 207.8 296.1 210.0 295.0C212.2 293.9 209.5 292.5 210.2 291.5C211.0 290.5 213.9 289.6 214.8 288.8C215.6 287.9 215.6 287.8 215.2 286.2C214.9 284.7 214.0 281.0 212.8 279.2C211.5 277.5 208.4 277.2 207.8 276.0C207.1 274.8 208.0 273.2 209.0 272.2C210.0 271.3 212.2 271.4 213.5 270.5C214.8 269.6 214.0 268.3 217.0 267.0C220.0 265.7 229.6 264.1 231.8 262.8C233.9 261.4 232.0 260.2 229.8 259.0C227.5 257.8 220.6 256.3 218.0 255.2C215.4 254.2 214.8 253.5 214.2 252.8C213.7 252.0 209.4 251.8 214.5 251.0C219.6 250.2 236.9 249.9 245.0 248.2C253.1 246.6 260.5 242.8 263.2 241.0C266.0 239.2 262.3 238.5 261.2 237.8C260.2 237.0 261.8 236.3 257.0 236.2C252.2 236.2 237.8 237.2 232.5 237.2C227.2 237.2 226.9 236.8 225.2 236.2C223.6 235.8 222.9 235.9 222.5 234.2C222.1 232.6 222.1 228.2 223.0 226.2C223.9 224.3 225.8 223.7 228.0 222.5C230.2 221.3 234.5 220.0 236.5 219.0C238.5 218.0 239.5 216.8 240.0 216.2C240.5 215.7 240.9 215.7 239.5 215.5C238.1 215.3 235.0 214.2 231.8 215.2C228.5 216.2 223.2 220.3 220.0 221.5C216.8 222.7 210.2 224.7 212.8 222.5C215.2 220.3 230.3 212.0 235.0 208.5C239.7 205.0 240.4 203.4 241.0 201.8C241.6 200.1 239.8 199.0 238.8 198.5C237.7 198.0 236.0 198.5 234.8 199.0C233.5 199.5 232.2 201.4 231.2 201.8C230.3 202.1 229.6 204.8 229.2 201.0C228.9 197.2 229.6 183.4 229.2 179.2C228.9 175.1 228.4 177.2 227.2 176.2C226.1 175.2 225.5 173.9 222.2 173.2Z"/><path fill="#021a6c" stroke="#021a6c" stroke-width=".7" stroke-linejoin="round" d="M90.0 319.2C93.0 319.8 107.0 320.0 110.2 319.8C113.5 319.5 111.3 318.1 109.2 317.5C107.2 316.9 100.8 316.1 98.0 316.0C95.2 315.9 93.8 316.2 92.5 316.8C91.2 317.3 87.0 318.8 90.0 319.2Z M231.0 316.2C230.5 317.2 229.3 319.2 231.2 319.8C233.2 320.2 240.7 319.8 242.5 319.2C244.3 318.7 242.6 317.2 242.2 316.5C241.9 315.8 241.6 315.6 240.2 315.2C238.9 314.9 235.5 314.1 234.0 314.2C232.5 314.4 231.5 315.3 231.0 316.2Z M308.5 303.2C307.6 303.0 307.2 303.8 306.8 305.0C306.3 306.2 305.9 309.3 306.0 310.8C306.1 312.2 307.0 313.0 307.5 313.5C308.0 314.0 308.6 314.1 309.2 313.8C309.9 313.4 311.0 312.5 311.5 311.2C312.0 310.0 312.5 307.8 312.0 306.5C311.5 305.2 309.4 303.5 308.5 303.2Z M299.8 293.0C299.2 293.0 298.5 293.0 298.0 295.8C297.5 298.5 297.3 305.5 296.5 309.5C295.7 313.5 292.0 318.0 293.2 319.8C294.5 321.5 302.0 321.1 304.0 319.8C306.0 318.4 305.4 314.2 305.0 311.8C304.6 309.3 302.3 307.9 301.8 305.2C301.2 302.6 301.8 298.0 301.5 296.0C301.2 294.0 300.3 293.0 299.8 293.0Z M291.5 265.2C291.9 259.5 289.5 268.9 289.0 271.2C288.5 273.6 289.4 274.5 288.2 279.5C287.1 284.5 283.7 296.8 282.0 301.2C280.3 305.7 280.4 304.1 278.2 306.0C276.1 307.9 271.3 310.2 269.2 312.5C267.2 314.8 262.6 318.5 265.8 319.8C268.9 321.0 284.2 320.8 288.2 319.8C292.2 318.8 289.9 315.4 289.8 313.8C289.6 312.1 287.8 311.1 287.2 309.8C286.8 308.4 286.0 312.9 286.8 305.5C287.5 298.1 291.1 271.0 291.5 265.2Z M116.8 256.0C116.1 255.8 115.0 257.1 114.0 259.8C113.0 262.4 111.8 267.4 111.0 272.0C110.2 276.6 109.4 282.2 109.2 287.5C109.1 292.8 108.9 307.4 110.0 303.8C111.1 300.1 114.5 272.9 115.8 265.8C117.0 258.6 117.6 262.4 117.8 260.8C117.9 259.1 117.4 256.2 116.8 256.0Z M192.5 255.8C192.3 257.1 192.3 257.6 193.5 258.8C194.7 259.9 197.0 262.6 199.5 262.5C202.0 262.4 207.4 259.3 208.5 258.0C209.6 256.7 208.1 255.8 206.2 254.5C204.4 253.2 199.5 250.6 197.5 250.0C195.5 249.4 195.3 249.8 194.5 250.8C193.7 251.7 192.7 254.4 192.5 255.8Z M196.0 247.0C198.9 249.5 210.9 249.2 216.2 249.5C221.6 249.8 225.1 249.4 228.2 249.0C231.4 248.6 233.4 248.2 235.0 247.2C236.6 246.3 236.6 243.7 238.0 243.5C239.4 243.3 242.0 246.0 243.5 246.0C245.0 246.0 244.9 244.4 247.0 243.8C249.1 243.1 254.3 243.1 256.2 242.2C258.2 241.4 262.8 239.1 258.8 238.8C254.7 238.4 237.9 240.2 232.0 240.2C226.1 240.3 227.2 240.0 223.5 239.2C219.8 238.5 213.5 236.8 209.8 235.5C206.0 234.2 202.8 231.4 201.0 231.2C199.2 231.1 199.6 231.9 198.8 234.5C197.9 237.1 193.1 244.5 196.0 247.0Z M74.8 239.2C74.2 239.0 73.1 239.2 72.0 240.0C70.9 240.8 68.8 242.3 68.0 244.0C67.2 245.7 68.8 248.8 67.5 250.0C66.2 251.2 62.4 250.2 60.5 251.2C58.6 252.2 57.8 255.1 56.0 256.0C54.2 256.9 51.0 257.0 49.5 256.8C48.0 256.5 47.5 256.2 47.2 254.2C47.0 252.3 47.4 246.8 47.8 245.2C48.1 243.7 48.6 244.4 49.2 244.8C49.9 245.1 50.9 247.1 51.8 247.5C52.6 247.9 53.5 248.4 54.2 247.0C55.0 245.6 55.3 240.8 56.5 239.0C57.7 237.2 60.9 237.0 61.2 236.2C61.6 235.5 59.3 235.5 58.5 234.5C57.7 233.5 57.3 231.0 56.5 230.5C55.7 230.0 54.7 230.3 53.5 231.2C52.3 232.2 50.8 235.9 49.2 236.0C47.8 236.1 45.7 233.2 44.5 231.8C43.3 230.3 42.6 228.2 42.0 227.5C41.4 226.8 41.7 225.4 41.0 227.8C40.3 230.1 38.4 235.1 37.8 241.8C37.1 248.4 37.4 263.3 37.0 267.5C36.6 271.7 36.2 268.7 35.2 266.8C34.2 264.8 33.1 257.6 31.0 255.8C28.9 253.9 22.0 251.7 22.5 255.5C23.0 259.3 32.0 273.8 34.0 278.5C36.0 283.2 34.8 281.8 34.8 283.8C34.7 285.7 34.0 288.9 33.5 290.2C33.0 291.6 32.1 291.8 31.5 292.0C30.9 292.2 31.3 292.9 29.8 291.8C28.2 290.6 24.0 286.3 22.2 285.0C20.5 283.7 19.8 284.2 19.0 283.8C18.2 283.2 17.7 283.5 17.5 282.0C17.3 280.5 18.1 276.0 17.8 274.8C17.4 273.5 16.2 273.6 15.2 274.5C14.3 275.4 12.5 276.9 12.0 280.2C11.5 283.6 13.1 290.7 12.5 294.8C11.9 298.8 9.8 302.5 8.5 304.8C7.2 307.0 5.2 307.2 4.8 308.2C4.3 309.2 4.9 309.8 6.0 310.8C7.1 311.8 11.1 313.5 11.5 314.2C11.9 315.0 10.2 316.1 8.2 315.5C6.3 314.9 1.4 309.8 0.0 310.5C-1.4 311.2 -5.0 318.2 0.0 319.8C5.0 321.3 24.8 320.0 30.2 319.8C35.7 319.5 31.9 318.0 32.8 318.0C33.6 318.0 32.2 319.5 35.2 319.8C38.3 320.0 48.3 320.3 51.0 319.8C53.7 319.2 51.0 317.5 51.5 316.5C52.0 315.5 52.8 314.0 53.8 314.0C54.8 314.0 56.8 315.3 57.5 316.2C58.2 317.2 57.1 319.2 58.0 319.8C58.9 320.3 63.1 321.8 62.8 319.8C62.4 317.7 57.0 310.4 55.8 307.5C54.5 304.6 55.0 304.2 55.2 302.5C55.5 300.8 56.4 298.5 57.0 297.2C57.6 296.0 57.4 295.0 59.0 295.2C60.6 295.5 66.4 300.2 66.5 298.8C66.6 297.3 59.6 292.2 59.5 286.5C59.4 280.8 63.4 272.2 66.0 264.8C68.6 257.2 73.8 245.8 75.2 241.5C76.7 237.2 75.3 239.5 74.8 239.2Z M183.2 227.2C182.5 225.5 179.9 225.2 179.0 224.2C178.1 223.3 178.7 222.3 178.0 221.8C177.3 221.2 177.1 220.5 174.8 221.0C172.4 221.5 166.5 224.3 164.0 225.0C161.5 225.7 161.8 224.5 159.8 225.2C157.8 226.0 155.3 228.8 152.0 229.5C148.7 230.2 143.8 230.0 140.0 229.2C136.2 228.5 132.0 222.7 129.2 225.0C126.5 227.3 124.5 238.8 123.8 243.2C123.0 247.8 125.6 249.0 125.0 252.0C124.4 255.0 120.8 257.9 120.2 261.0C119.7 264.1 120.7 269.0 121.5 270.8C122.3 272.5 123.5 272.1 125.0 271.8C126.5 271.4 128.8 268.4 130.8 268.5C132.7 268.6 133.4 271.6 136.8 272.2C140.1 272.9 146.8 271.4 150.8 272.2C154.8 273.1 157.6 276.3 160.8 277.2C163.9 278.2 167.8 278.7 169.8 278.0C171.7 277.3 171.9 274.8 172.2 273.2C172.6 271.7 172.4 269.7 172.0 268.5C171.6 267.3 175.4 268.4 169.8 266.2C164.1 264.1 144.7 256.9 138.0 255.5C131.3 254.1 131.1 258.4 129.5 258.0C127.9 257.6 128.1 254.8 128.2 253.0C128.4 251.2 130.2 249.5 130.5 247.2C130.8 245.0 129.4 241.1 129.8 239.8C130.1 238.4 130.4 237.7 132.5 239.0C134.6 240.3 138.2 245.0 142.5 247.5C146.8 250.0 154.5 252.9 158.2 254.0C162.0 255.1 163.3 253.7 165.2 254.0C167.2 254.3 168.1 255.7 169.8 255.8C171.4 255.8 173.8 254.3 175.0 254.2C176.2 254.2 175.3 258.8 176.8 255.5C178.2 252.2 182.7 239.2 183.8 234.5C184.8 229.8 184.0 229.0 183.2 227.2Z M205.0 220.2C205.0 221.0 205.4 221.6 206.0 222.0C206.6 222.4 206.8 223.2 208.5 222.5C210.2 221.8 216.4 218.5 216.0 217.8C215.6 217.0 208.1 217.3 206.2 217.8C204.4 218.2 205.0 219.5 205.0 220.2Z M92.5 209.8C91.5 209.6 90.2 210.4 89.0 212.2C87.8 214.1 84.6 220.5 85.5 221.0C86.4 221.5 92.9 216.3 94.5 215.0C96.1 213.7 95.3 213.9 95.0 213.0C94.7 212.1 93.5 209.9 92.5 209.8Z M236.5 204.2C236.2 203.8 236.2 203.0 234.2 203.8C232.3 204.5 226.6 207.1 224.8 208.8C222.9 210.4 222.9 212.7 223.2 213.5C223.6 214.3 224.6 214.6 226.8 213.5C228.9 212.4 234.6 208.3 236.2 206.8C237.9 205.2 236.8 204.8 236.5 204.2Z M98.8 203.5C97.2 204.1 93.8 206.3 94.2 207.2C94.8 208.2 99.0 207.0 101.8 209.2C104.5 211.5 108.2 215.2 110.5 220.5C112.8 225.8 114.2 237.3 115.2 241.0C116.3 244.7 116.3 248.3 116.8 242.8C117.2 237.2 117.8 213.5 117.8 207.5C117.7 201.5 117.0 206.4 116.5 206.5C116.0 206.6 114.9 207.5 114.5 208.0C114.1 208.5 113.8 208.8 114.0 209.8C114.2 210.7 115.7 213.0 115.8 213.8C115.8 214.5 116.3 216.0 114.2 214.2C112.2 212.5 106.1 205.3 103.5 203.5C100.9 201.7 100.3 202.9 98.8 203.5Z M206.8 176.0C204.4 176.9 204.9 177.6 204.5 179.0C204.1 180.4 204.2 182.8 204.5 184.2C204.8 185.7 206.3 186.5 206.5 187.8C206.7 189.0 203.6 189.0 205.5 191.8C207.4 194.5 215.6 201.3 217.8 204.0C219.9 206.7 217.7 207.2 218.5 207.8C219.3 208.3 221.1 210.2 222.8 207.2C224.4 204.3 227.8 195.0 228.5 190.2C229.2 185.5 228.5 180.8 227.2 178.8C226.0 176.7 222.7 178.6 221.2 177.8C219.8 176.9 220.9 174.0 218.5 173.8C216.1 173.5 209.1 175.1 206.8 176.0Z M127.5 173.5C126.6 173.2 124.7 173.7 123.8 174.2C122.8 174.8 122.2 175.2 121.8 177.0C121.3 178.8 121.7 182.6 121.0 185.0C120.3 187.4 118.0 189.8 117.8 191.5C117.5 193.2 118.8 194.8 119.5 195.2C120.2 195.7 120.5 196.6 122.0 194.2C123.5 191.9 127.6 184.3 128.8 181.2C129.9 178.2 129.2 177.3 129.0 176.0C128.8 174.7 128.4 173.8 127.5 173.5Z"/>
        <path class="pt-strap" d="M59.2 250.0C58.3 249.0 54.1 247.8 52.2 248.0C50.4 248.2 48.8 250.2 48.0 251.2C47.2 252.2 47.1 253.1 47.5 254.0C47.9 254.9 49.0 256.4 50.2 256.8C51.5 257.1 53.5 256.7 54.8 256.2C56.0 255.8 57.2 255.3 58.0 254.2C58.8 253.2 60.2 251.0 59.2 250.0Z M63.0 214.0C60.6 212.2 61.5 214.0 61.0 214.5C60.5 215.0 60.2 214.6 59.8 216.8C59.3 218.9 58.3 225.0 58.5 227.5C58.7 230.0 60.1 231.7 61.0 232.0C61.9 232.3 62.5 230.0 64.0 229.5C65.5 229.0 68.4 229.5 70.2 228.8C72.1 228.0 76.5 227.7 75.2 225.2C74.0 222.8 65.4 215.8 63.0 214.0Z M94.5 198.8C93.9 198.1 91.9 197.5 90.8 197.2C89.6 197.0 88.9 196.9 87.5 197.5C86.1 198.1 83.2 200.0 82.2 201.0C81.3 202.0 81.6 202.2 82.0 203.2C82.4 204.2 83.7 206.3 84.5 207.0C85.3 207.7 85.1 208.2 86.8 207.2C88.4 206.3 93.0 202.7 94.2 201.2C95.5 199.8 95.1 199.4 94.5 198.8Z"/>
        <path class="pt-lanyard" d="M118.5 271.0C118.0 270.9 117.2 271.0 116.8 271.2C116.3 271.5 116.4 270.5 116.0 272.2C115.6 274.0 114.9 277.0 114.2 281.8C113.6 286.5 112.5 294.2 112.0 300.5C111.5 306.8 111.5 316.5 111.5 319.8C111.5 323.0 112.1 320.0 112.2 319.8C112.4 319.5 112.2 318.5 112.5 318.0C112.8 317.5 112.9 317.0 114.2 316.8C115.6 316.5 119.4 316.5 120.8 316.8C122.1 317.0 122.2 317.5 122.5 318.0C122.8 318.5 122.6 319.5 122.8 319.8C122.9 320.0 123.4 322.1 123.5 319.8C123.6 317.4 124.1 313.5 123.5 305.5C122.9 297.5 120.6 277.5 119.8 271.8C118.9 266.0 119.0 271.1 118.5 271.0Z M124.2 236.0C123.5 235.4 119.6 237.5 118.8 238.5C117.9 239.5 118.7 241.5 119.0 241.8C119.3 242.0 120.3 240.0 120.8 239.8C121.2 239.5 121.5 240.1 121.5 240.5C121.5 240.9 120.9 241.6 121.0 242.2C121.1 242.9 121.6 244.3 122.0 244.2C122.4 244.2 122.9 243.4 123.2 242.0C123.6 240.6 125.0 236.6 124.2 236.0Z M203.8 194.0C203.4 193.8 203.1 194.0 202.8 194.8C202.4 195.5 202.6 196.7 201.5 198.5C200.4 200.3 197.6 203.1 196.0 205.8C194.4 208.4 193.2 211.0 191.8 214.5C190.2 218.0 188.4 222.6 187.0 227.0C185.6 231.4 184.5 237.8 183.5 241.0C182.5 244.2 185.3 233.1 181.2 246.2C177.2 259.4 162.3 307.5 159.2 319.8C156.2 332.0 162.2 319.9 163.0 319.8C163.8 319.6 163.5 318.8 164.0 318.8C164.5 318.8 164.3 319.6 165.8 319.8C167.2 319.9 170.5 322.3 172.5 319.8C174.5 317.2 176.5 308.4 177.5 304.5C178.5 300.6 178.1 298.9 178.8 296.5C179.4 294.1 179.0 298.0 181.5 290.0C184.0 282.0 191.4 257.0 193.8 248.8C196.1 240.5 193.4 246.4 195.5 240.2C197.6 234.1 204.5 217.2 206.2 211.8C208.0 206.3 207.0 209.4 206.2 207.5C205.5 205.6 202.1 201.9 201.5 200.2C200.9 198.6 202.0 198.2 202.5 197.5C203.0 196.8 204.5 196.3 204.8 195.8C205.0 195.2 204.1 194.2 203.8 194.0Z M169.5 291.2C170.0 291.0 170.2 290.8 171.5 291.0C172.8 291.2 175.8 292.0 177.0 292.5C178.2 293.0 178.5 293.3 178.8 294.0C179.0 294.7 179.0 295.6 178.8 296.8C178.5 297.9 177.7 299.9 177.2 300.8C176.8 301.6 176.5 301.8 176.0 302.0C175.5 302.2 175.4 302.6 174.0 302.2C172.6 301.9 168.7 300.8 167.5 300.0C166.3 299.2 166.8 298.8 167.0 297.5C167.2 296.2 168.1 293.3 168.5 292.2C168.9 291.2 169.0 291.5 169.5 291.2Z M186.2 235.2C186.8 235.0 186.5 234.6 188.0 235.0C189.5 235.4 193.8 236.6 195.0 237.5C196.2 238.4 195.9 238.8 195.5 240.2C195.1 241.7 193.5 245.0 192.8 246.0C192.0 247.0 192.1 246.4 191.0 246.2C189.9 246.1 187.2 245.4 186.0 245.0C184.8 244.6 184.4 244.4 184.0 243.8C183.6 243.1 183.3 242.4 183.5 241.2C183.7 240.1 184.5 237.8 185.0 236.8C185.5 235.8 185.8 235.5 186.2 235.2Z M125.0 193.8C124.6 193.7 123.8 193.8 123.2 194.5C122.7 195.2 122.2 196.1 121.8 197.8C121.2 199.4 120.7 201.7 120.2 204.5C119.8 207.3 119.2 210.7 119.0 214.8C118.8 218.8 118.3 226.8 119.0 229.0C119.7 231.2 121.8 227.8 123.0 227.8C124.2 227.7 124.8 232.0 126.2 228.5C127.7 225.0 130.9 211.1 131.8 207.0C132.6 202.9 131.6 204.8 131.2 204.0C130.9 203.2 130.5 202.3 129.8 202.0C129.0 201.7 127.5 202.5 126.8 202.2C126.0 202.0 125.6 201.5 125.2 200.8C124.9 200.0 124.7 199.0 124.8 198.0C124.8 197.0 125.7 195.5 125.8 194.8C125.8 194.0 125.4 193.8 125.0 193.8Z"/>
      </g>
      <g class="pt-head">
        <g id="pt-skin"><path fill="#fcceb5" d="M193.2 54.2C191.6 53.8 189.4 53.7 188.2 53.8C187.1 53.8 186.9 54.5 186.2 54.5C185.6 54.5 185.0 53.7 184.2 53.5C183.5 53.3 182.5 53.3 181.5 53.5C180.5 53.7 180.1 54.6 178.0 54.8C175.9 54.9 171.7 54.2 169.0 54.5C166.3 54.8 163.8 55.9 161.8 56.2C159.7 56.6 158.7 56.3 156.8 56.8C154.8 57.2 151.9 58.5 150.2 58.8C148.6 59.0 148.1 58.1 146.8 58.2C145.4 58.4 143.6 59.3 142.2 59.5C140.9 59.7 140.2 59.0 138.5 59.5C136.8 60.0 133.2 61.9 132.0 62.8C130.8 63.6 131.4 63.5 131.2 64.8C131.1 66.0 131.9 68.7 131.2 70.5C130.6 72.3 128.0 74.3 127.5 75.5C127.0 76.7 128.2 77.2 128.2 77.8C128.3 78.3 128.5 78.3 128.0 79.0C127.5 79.7 125.5 81.2 125.0 82.0C124.5 82.8 125.0 83.0 124.8 83.5C124.5 84.0 125.8 84.5 123.8 84.8C121.8 85.0 114.7 84.6 112.8 84.8C110.8 84.9 112.1 81.8 112.0 85.5C111.9 89.2 112.7 102.3 112.0 107.0C111.3 111.7 108.7 110.9 108.0 113.8C107.3 116.6 107.8 122.0 108.0 124.0C108.2 126.0 108.8 124.9 109.0 125.8C109.2 126.6 108.8 128.2 109.0 129.0C109.2 129.8 109.7 129.8 110.0 130.8C110.3 131.8 109.8 132.3 111.0 135.0C112.2 137.7 116.0 144.6 117.0 146.8C118.0 148.9 116.8 147.4 117.0 148.0C117.2 148.6 117.7 149.9 118.2 150.5C118.8 151.1 119.9 151.3 120.5 151.8C121.1 152.2 121.3 152.6 121.8 153.2C122.2 153.9 122.6 154.6 123.0 155.8C123.4 156.9 123.3 158.3 124.0 160.0C124.7 161.7 125.9 163.9 127.2 165.8C128.6 167.6 130.8 169.8 132.2 171.2C133.8 172.7 134.0 172.9 136.2 174.5C138.5 176.1 143.9 179.7 146.0 180.8C148.1 181.8 147.9 180.7 149.0 181.0C150.1 181.3 151.2 182.1 152.5 182.5C153.8 182.9 152.4 183.1 157.0 183.2C161.6 183.4 175.9 183.4 180.2 183.2C184.6 183.1 180.6 183.7 183.0 182.5C185.4 181.3 191.3 178.3 194.5 176.2C197.7 174.2 199.9 172.2 202.0 170.0C204.1 167.8 206.1 164.9 207.2 163.2C208.4 161.6 208.5 161.1 208.8 160.0C209.0 158.9 208.6 157.6 208.8 156.8C208.9 155.9 209.6 155.5 209.8 155.0C209.9 154.5 209.4 154.7 209.8 153.8C210.1 152.8 211.3 150.4 212.0 149.2C212.7 148.1 213.3 148.1 213.8 147.0C214.2 145.9 214.1 144.4 214.8 142.8C215.4 141.1 217.2 138.2 217.8 137.0C218.2 135.8 217.4 136.8 217.8 135.8C218.1 134.8 219.4 132.3 219.8 131.0C220.1 129.7 219.6 128.6 219.8 127.8C219.9 126.9 220.6 128.8 220.8 126.0C220.9 123.2 221.2 114.4 220.8 110.8C220.2 107.1 218.2 108.4 217.8 104.0C217.2 99.6 217.8 87.8 217.8 84.5C217.7 81.2 217.5 84.0 217.2 84.0C217.0 84.0 217.0 84.6 216.2 84.8C215.5 84.9 213.2 84.8 212.5 84.8C211.8 84.7 211.9 85.0 211.8 84.2C211.6 83.5 211.8 82.0 211.5 80.5C211.2 79.0 211.8 78.7 210.2 75.5C208.8 72.3 204.5 64.4 202.5 61.2C200.5 58.1 199.8 57.7 198.2 56.5C196.7 55.3 194.9 54.7 193.2 54.2Z M219.2 53.8C219.8 53.6 219.4 53.1 219.2 52.8C219.1 52.4 219.0 51.8 218.2 51.8C217.5 51.7 215.5 52.3 215.0 52.5C214.5 52.7 214.8 52.8 215.0 53.0C215.2 53.2 215.5 53.6 216.2 53.8C217.0 53.9 218.8 53.9 219.2 53.8Z M128.2 32.8C127.8 32.5 127.1 32.7 126.2 33.2C125.4 33.8 123.8 35.4 123.2 36.2C122.7 37.1 123.0 38.0 123.0 38.5C123.0 39.0 123.2 39.0 123.5 39.0C123.8 39.0 124.6 39.2 124.8 38.8C124.9 38.3 124.3 37.2 124.5 36.5C124.7 35.8 125.0 35.1 125.8 34.8C126.5 34.4 128.3 34.8 128.8 34.5C129.2 34.2 128.7 33.0 128.2 32.8Z M182.2 22.2C181.7 22.5 182.1 23.4 182.5 23.5C182.9 23.6 183.9 22.9 184.5 23.0C185.1 23.1 185.0 23.7 186.2 24.0C187.5 24.3 191.2 24.7 192.2 24.8C193.2 24.8 192.6 24.5 192.2 24.2C191.9 24.0 190.8 23.2 190.0 23.0C189.2 22.8 188.4 23.2 187.8 23.0C187.1 22.8 186.9 22.1 186.0 22.0C185.1 21.9 182.8 22.0 182.2 22.2Z"/><path fill="#eeb79e" stroke="#eeb79e" stroke-width=".7" stroke-linejoin="round" d="M193.2 54.2C191.6 53.8 189.4 53.7 188.2 53.8C187.1 53.8 186.9 54.5 186.2 54.5C185.6 54.5 185.0 53.7 184.2 53.5C183.5 53.3 182.5 53.3 181.5 53.5C180.5 53.7 180.1 54.6 178.0 54.8C175.9 54.9 171.7 54.2 169.0 54.5C166.3 54.8 164.0 55.9 162.0 56.2C160.0 56.6 158.7 56.3 156.8 56.8C154.8 57.2 152.2 58.5 150.5 58.8C148.8 59.0 148.1 58.1 146.8 58.2C145.4 58.4 143.6 59.3 142.2 59.5C140.9 59.7 140.2 59.0 138.5 59.5C136.8 60.0 133.2 61.9 132.0 62.8C130.8 63.6 131.4 63.5 131.2 64.8C131.1 66.0 131.9 68.7 131.2 70.5C130.6 72.3 128.0 74.3 127.5 75.5C127.0 76.7 128.2 77.2 128.2 77.8C128.3 78.3 128.5 78.3 128.0 79.0C127.5 79.7 125.5 81.2 125.0 82.0C124.5 82.8 125.0 83.0 124.8 83.5C124.5 84.0 125.8 84.5 123.8 84.8C121.8 85.0 114.7 84.6 112.8 84.8C110.8 84.9 112.1 81.8 112.0 85.5C111.9 89.2 112.7 102.3 112.0 107.0C111.3 111.7 108.7 110.9 108.0 113.8C107.3 116.6 107.8 122.0 108.0 124.0C108.2 126.0 108.8 124.9 109.0 125.8C109.2 126.6 108.8 128.2 109.0 129.0C109.2 129.8 109.7 129.8 110.0 130.8C110.3 131.8 109.8 132.3 111.0 135.0C112.2 137.7 116.0 144.6 117.0 146.8C118.0 148.9 116.8 147.4 117.0 148.0C117.2 148.6 117.5 149.7 118.2 150.5C119.0 151.3 120.8 151.6 121.8 153.0C122.7 154.4 123.6 157.6 124.0 158.8C124.4 159.9 123.5 158.8 124.0 160.0C124.5 161.2 125.9 163.9 127.2 165.8C128.6 167.6 130.8 169.8 132.2 171.2C133.8 172.7 134.0 172.9 136.2 174.5C138.5 176.1 143.9 179.7 146.0 180.8C148.1 181.8 147.9 180.7 149.0 181.0C150.1 181.3 151.2 182.1 152.5 182.5C153.8 182.9 152.4 183.1 157.0 183.2C161.6 183.4 175.9 183.4 180.2 183.2C184.6 183.1 180.6 183.7 183.0 182.5C185.4 181.3 191.3 178.3 194.5 176.2C197.7 174.2 199.8 172.2 202.0 170.0C204.2 167.8 206.1 165.9 207.5 162.8C208.9 159.6 209.2 153.9 210.2 151.2C211.3 148.6 213.2 148.2 213.8 147.0C214.3 145.8 213.2 145.2 213.5 144.2C213.8 143.2 214.7 143.2 215.8 141.0C216.8 138.8 219.1 133.2 219.8 131.0C220.4 128.8 219.6 128.6 219.8 127.8C219.9 126.9 220.6 128.8 220.8 126.0C220.9 123.2 221.2 114.9 220.8 111.2C220.2 107.6 218.2 108.5 217.8 104.0C217.2 99.5 217.8 87.8 217.8 84.5C217.7 81.2 217.5 84.0 217.2 84.0C217.0 84.0 217.0 84.6 216.2 84.8C215.5 84.9 213.2 84.8 212.5 84.8C211.8 84.7 211.9 85.0 211.8 84.2C211.6 83.5 211.8 82.0 211.5 80.5C211.2 79.0 211.8 78.7 210.2 75.5C208.8 72.3 204.5 64.4 202.5 61.2C200.5 58.1 199.8 57.7 198.2 56.5C196.7 55.3 194.9 54.7 193.2 54.2Z M182.8 157.0C182.7 158.2 181.3 161.8 181.0 163.5C180.7 165.2 181.3 166.2 181.0 167.2C180.7 168.2 179.7 169.0 179.0 169.5C178.3 170.0 178.0 170.5 176.8 170.5C175.5 170.5 172.9 169.6 171.8 169.8C170.6 169.9 170.4 171.2 170.0 171.5C169.6 171.8 170.0 172.1 169.2 171.5C168.5 170.9 165.9 168.8 165.2 167.8C164.6 166.7 165.0 166.0 165.2 165.2C165.5 164.5 165.8 164.0 166.8 163.5C167.7 163.0 169.2 162.7 171.0 162.5C172.8 162.3 175.9 162.8 177.2 162.5C178.6 162.2 178.8 161.9 179.2 161.0C179.8 160.1 179.9 157.8 180.2 157.0C180.6 156.2 181.1 156.2 181.5 156.2C181.9 156.2 182.8 155.8 182.8 157.0Z M174.5 126.5C174.8 126.4 175.2 126.2 175.5 126.5C175.8 126.8 176.3 127.5 176.5 128.0C176.7 128.5 176.8 129.3 176.8 129.8C176.7 130.2 176.5 130.4 176.2 130.5C176.0 130.6 175.7 130.8 175.2 130.5C174.8 130.2 174.0 129.0 173.8 128.5C173.5 128.0 173.6 127.6 173.8 127.2C173.9 126.9 174.2 126.6 174.5 126.5Z M125.5 115.0C125.7 114.6 126.7 113.8 127.5 114.0C128.3 114.2 128.5 115.4 130.2 116.0C132.0 116.6 135.3 117.4 138.2 117.8C141.2 118.1 146.1 117.8 148.0 118.0C149.9 118.2 149.5 118.3 149.8 119.0C150.0 119.7 149.5 121.5 149.2 122.2C149.0 123.0 148.6 123.5 148.0 123.5C147.4 123.5 146.1 122.5 145.5 122.5C144.9 122.5 144.5 122.7 144.2 123.2C144.0 123.8 144.5 125.1 144.2 125.8C144.0 126.4 143.1 127.0 142.5 127.2C141.9 127.5 141.8 127.7 140.8 127.5C139.7 127.3 137.1 126.7 136.0 126.2C134.9 125.8 134.8 125.7 134.2 124.8C133.7 123.8 133.3 122.0 132.5 120.8C131.7 119.5 130.3 117.7 129.2 117.0C128.2 116.3 126.9 116.8 126.2 116.5C125.6 116.2 125.3 115.4 125.5 115.0Z M148.0 106.5C148.5 106.3 149.2 107.3 149.5 107.8C149.8 108.2 150.0 108.7 150.0 109.0C150.0 109.3 149.7 109.6 149.2 109.8C148.8 109.9 147.8 110.1 147.2 110.0C146.8 109.9 146.1 109.6 146.2 109.0C146.4 108.4 147.5 106.7 148.0 106.5Z M160.5 119.0C160.1 118.2 161.0 118.3 161.0 117.2C161.0 116.2 160.4 115.0 160.8 112.8C161.1 110.5 162.5 105.5 163.0 103.8C163.5 102.0 163.1 102.8 163.8 102.0C164.4 101.2 166.0 99.4 166.8 99.0C167.5 98.6 167.7 99.0 168.2 99.5C168.8 100.0 169.5 100.2 170.0 101.8C170.5 103.3 170.5 107.7 171.0 108.8C171.5 109.8 172.5 108.1 173.0 108.2C173.5 108.4 173.7 108.8 174.0 109.5C174.3 110.2 173.8 111.7 174.8 112.8C175.7 113.8 177.2 115.0 179.5 116.0C181.8 117.0 186.6 118.1 188.5 118.5C190.4 118.9 190.0 118.7 191.0 118.5C192.0 118.3 193.5 118.1 194.2 117.5C195.0 116.9 195.2 115.5 195.8 114.8C196.3 114.0 196.9 113.5 197.5 113.0C198.1 112.5 198.3 112.2 199.5 112.0C200.7 111.8 203.7 111.3 204.8 111.5C205.8 111.7 205.8 112.5 206.0 113.0C206.2 113.5 206.9 113.6 206.0 114.8C205.1 115.9 201.9 118.2 200.8 119.8C199.6 121.3 200.8 122.5 199.2 124.0C197.8 125.5 193.3 128.0 191.8 128.8C190.2 129.5 190.5 128.8 190.0 128.5C189.5 128.2 188.9 127.7 188.5 127.0C188.1 126.3 188.1 124.5 187.5 124.5C186.9 124.5 185.8 126.3 185.0 126.8C184.2 127.2 183.2 127.0 182.5 127.0C181.8 127.0 181.9 127.0 181.0 126.5C180.1 126.0 178.9 124.5 177.2 123.8C175.6 123.0 172.4 122.1 171.0 122.2C169.6 122.4 169.5 123.3 169.0 124.5C168.5 125.7 168.6 128.2 168.2 129.2C167.9 130.2 167.6 130.2 167.0 130.5C166.4 130.8 165.4 131.2 164.8 131.0C164.1 130.8 163.2 130.7 163.0 129.2C162.8 127.8 163.7 124.0 163.2 122.2C162.8 120.5 160.9 119.8 160.5 119.0Z M184.2 97.2C184.7 96.8 186.0 96.0 187.0 95.8C188.0 95.5 189.5 95.5 190.5 95.8C191.5 96.0 192.8 96.9 193.2 97.5C193.8 98.1 193.6 98.8 193.5 99.2C193.4 99.7 193.7 100.0 192.5 100.0C191.3 100.0 187.6 99.8 186.2 99.5C184.9 99.2 184.6 98.6 184.2 98.2C183.9 97.9 183.8 97.7 184.2 97.2Z M205.0 73.0C205.2 74.6 205.1 75.4 205.0 76.8C204.9 78.1 204.6 79.8 204.2 81.0C203.9 82.2 202.8 83.1 202.8 84.2C202.7 85.4 203.8 86.8 203.8 87.8C203.7 88.7 202.8 89.1 202.5 90.0C202.2 90.9 202.1 92.3 201.8 93.0C201.4 93.7 201.4 94.0 200.5 94.0C199.6 94.0 198.4 93.9 196.2 93.2C194.1 92.6 190.8 90.8 187.5 90.2C184.2 89.8 178.8 90.1 176.5 90.2C174.2 90.4 174.5 91.1 173.5 91.2C172.5 91.4 171.2 91.0 170.2 91.2C169.3 91.5 168.8 92.2 168.0 92.5C167.2 92.8 166.4 92.8 165.2 92.8C164.1 92.7 162.5 92.6 161.2 92.2C160.0 91.9 160.4 91.4 158.0 90.5C155.6 89.6 149.2 88.0 146.8 87.0C144.2 86.0 144.0 85.3 143.0 84.5C142.0 83.7 141.2 82.8 140.8 82.2C140.3 81.7 140.2 81.8 140.5 81.2C140.8 80.7 142.1 79.5 142.5 78.8C142.9 78.0 143.1 78.2 142.8 76.5C142.4 74.8 140.7 70.5 140.2 68.8C139.8 67.0 140.0 66.9 140.2 66.0C140.5 65.1 141.0 64.4 142.0 63.5C143.0 62.6 143.8 61.4 146.5 60.5C149.2 59.6 154.5 58.6 158.0 58.0C161.5 57.4 165.0 57.4 167.2 57.0C169.5 56.6 169.2 55.9 171.2 55.8C173.3 55.6 177.8 56.0 179.5 56.0C181.2 56.0 180.0 55.5 181.2 55.5C182.5 55.5 184.9 56.2 186.8 56.2C188.6 56.3 190.8 55.5 192.5 56.0C194.2 56.5 196.0 58.0 197.2 59.0C198.5 60.0 199.2 60.9 200.2 62.2C201.3 63.6 202.7 65.5 203.5 67.2C204.3 69.0 204.8 71.4 205.0 73.0Z M219.2 53.5C219.2 53.1 219.0 51.9 218.2 51.8C217.5 51.6 215.5 52.3 215.0 52.5C214.5 52.7 214.8 52.8 215.0 53.0C215.2 53.2 215.6 53.6 216.2 53.8C216.9 53.9 218.2 54.0 218.8 54.0C219.2 54.0 219.3 53.9 219.2 53.5Z"/><path fill="#dea389" stroke="#dea389" stroke-width=".7" stroke-linejoin="round" d="M171.8 94.5C170.2 95.2 170.8 95.3 170.5 95.8C170.2 96.2 170.0 96.5 170.2 97.2C170.5 98.0 171.7 98.8 172.0 100.2C172.3 101.7 171.5 104.1 172.2 105.8C173.0 107.4 175.5 108.8 176.2 110.0C177.0 111.2 176.3 111.9 177.0 112.8C177.7 113.6 179.0 114.6 180.2 115.2C181.5 115.9 183.5 116.3 184.5 116.5C185.5 116.7 186.1 116.6 186.5 116.5C186.9 116.4 187.2 116.3 187.0 116.0C186.8 115.7 185.7 114.9 185.5 114.5C185.3 114.1 184.7 113.9 186.0 113.5C187.3 113.1 191.8 112.6 193.2 112.2C194.8 111.9 194.4 111.8 195.0 111.2C195.6 110.7 195.9 109.3 196.8 109.0C197.6 108.7 199.5 109.3 200.2 109.2C201.0 109.2 200.6 109.4 201.0 108.8C201.4 108.1 202.2 106.2 202.5 105.2C202.8 104.3 202.8 103.9 202.8 103.2C202.7 102.6 202.5 101.8 202.0 101.2C201.5 100.7 200.0 100.0 199.5 99.8C199.0 99.5 199.0 99.6 198.8 99.8C198.5 99.9 198.3 100.0 198.2 100.5C198.2 101.0 199.3 102.4 198.2 102.5C197.2 102.6 193.6 101.2 192.0 101.0C190.4 100.8 189.6 101.2 188.5 101.0C187.4 100.8 186.3 100.2 185.2 100.0C184.2 99.8 183.0 99.9 182.2 100.0C181.5 100.1 181.5 100.4 181.0 100.5C180.5 100.6 179.4 100.6 179.0 100.5C178.6 100.4 178.6 100.2 178.5 100.0C178.4 99.8 177.9 99.6 178.5 99.0C179.1 98.4 180.6 97.0 182.2 96.2C183.9 95.5 186.7 95.0 188.5 94.8C190.3 94.5 192.5 94.9 193.2 94.8C194.0 94.6 193.7 94.5 192.8 94.0C191.8 93.5 188.9 92.0 187.8 91.5C186.6 91.0 187.0 91.0 185.8 91.0C184.5 91.0 182.3 90.9 180.0 91.5C177.7 92.1 173.3 93.8 171.8 94.5Z M192.5 108.8C192.6 109.0 192.8 109.4 192.2 109.8C191.8 110.1 190.3 110.6 189.5 110.8C188.7 110.9 188.0 110.7 187.5 110.5C187.0 110.3 186.1 110.2 186.8 109.8C187.4 109.3 190.5 108.2 191.5 108.0C192.5 107.8 192.4 108.5 192.5 108.8Z M138.5 59.5C136.6 60.0 133.2 61.9 132.0 62.8C130.8 63.6 131.4 63.5 131.2 64.8C131.1 66.0 131.9 68.7 131.2 70.5C130.6 72.3 128.0 74.3 127.5 75.5C127.0 76.7 128.2 77.2 128.2 77.8C128.3 78.3 128.5 78.3 128.0 79.0C127.5 79.7 125.5 81.2 125.0 82.0C124.5 82.8 125.0 83.0 124.8 83.5C124.5 84.0 125.8 84.5 123.8 84.8C121.8 85.0 114.7 84.6 112.8 84.8C110.8 84.9 112.1 81.8 112.0 85.5C111.9 89.2 112.7 102.3 112.0 107.0C111.3 111.7 108.7 110.9 108.0 113.8C107.3 116.6 107.8 122.0 108.0 124.0C108.2 126.0 108.8 124.9 109.0 125.8C109.2 126.6 108.8 128.2 109.0 129.0C109.2 129.8 109.7 129.8 110.0 130.8C110.3 131.8 110.1 132.8 111.0 135.0C111.9 137.2 114.4 142.1 115.5 144.0C116.6 145.9 117.2 145.5 117.5 146.2C117.8 147.0 117.1 147.8 117.2 148.5C117.4 149.2 117.5 149.8 118.2 150.5C119.0 151.2 121.0 151.3 122.0 153.0C123.0 154.7 123.5 158.5 124.2 160.5C125.0 162.5 125.2 163.0 126.5 164.8C127.8 166.5 129.9 169.1 132.2 171.2C134.6 173.4 138.5 176.2 140.8 177.8C143.0 179.3 144.6 180.2 146.0 180.8C147.4 181.3 147.9 180.7 149.0 181.0C150.1 181.3 151.2 182.1 152.5 182.5C153.8 182.9 152.4 183.1 157.0 183.2C161.6 183.4 175.9 183.4 180.2 183.2C184.6 183.1 180.6 183.7 183.0 182.5C185.4 181.3 191.5 178.2 194.5 176.2C197.5 174.3 199.2 172.7 201.0 171.0C202.8 169.3 203.8 168.2 205.0 166.2C206.2 164.3 207.4 161.9 208.2 159.2C209.1 156.6 209.2 152.4 210.0 150.5C210.8 148.6 212.9 148.6 213.2 147.8C213.6 146.9 212.2 145.9 212.0 145.2C211.8 144.6 211.5 144.8 212.0 144.0C212.5 143.2 214.5 141.5 215.2 140.5C216.0 139.5 216.1 138.6 216.2 138.0C216.4 137.4 216.7 136.9 216.2 137.0C215.8 137.1 214.4 138.6 213.8 138.8C213.1 138.9 212.5 139.2 212.5 137.8C212.5 136.3 213.3 131.8 213.8 130.2C214.2 128.8 214.5 129.0 215.0 128.8C215.5 128.5 215.9 128.0 216.5 128.5C217.1 129.0 218.0 131.3 218.5 131.8C219.0 132.2 219.5 131.7 219.8 131.0C220.0 130.3 219.6 128.6 219.8 127.8C219.9 126.9 220.8 126.6 220.8 126.0C220.8 125.4 219.8 126.3 219.8 124.0C219.8 121.7 220.9 114.7 220.8 112.2C220.6 109.8 219.3 110.2 219.0 109.5C218.7 108.8 219.2 108.8 219.0 108.0C218.8 107.2 218.0 108.7 217.8 104.8C217.5 100.8 217.8 88.0 217.8 84.5C217.7 81.0 217.5 84.0 217.2 84.0C217.0 84.0 217.1 84.7 216.2 84.8C215.4 84.8 212.8 84.6 212.0 84.5C211.2 84.4 211.7 84.7 211.5 84.0C211.3 83.3 211.2 80.0 211.0 80.5C210.8 81.0 210.3 84.6 210.5 87.2C210.7 89.9 211.9 93.1 212.2 96.2C212.6 99.4 212.5 104.0 212.5 106.2C212.5 108.5 212.1 107.6 212.0 109.5C211.9 111.4 212.1 115.8 212.0 117.8C211.9 119.7 211.6 120.0 211.2 121.0C210.9 122.0 210.4 122.9 210.0 123.5C209.6 124.1 209.9 124.0 208.8 124.5C207.6 125.0 204.5 125.8 203.2 126.8C202.0 127.7 202.0 129.2 201.2 130.0C200.5 130.8 199.3 130.7 198.5 131.2C197.7 131.8 197.6 133.1 196.2 133.2C194.9 133.4 192.9 133.1 190.5 132.2C188.1 131.4 184.0 129.0 182.0 128.2C180.0 127.5 179.4 127.7 178.8 127.8C178.1 127.8 178.3 128.1 178.2 128.5C178.2 128.9 178.0 129.5 178.5 130.0C179.0 130.5 179.5 130.1 181.2 131.5C183.0 132.9 187.2 136.8 188.8 138.5C190.2 140.2 190.1 141.3 190.2 142.0C190.4 142.7 190.2 142.5 189.8 142.5C189.2 142.5 188.3 142.7 187.2 142.2C186.2 141.8 184.5 140.4 183.2 140.0C182.0 139.6 180.5 139.7 179.8 139.8C179.0 139.8 178.9 140.4 178.5 140.5C178.1 140.6 177.8 140.8 177.2 140.5C176.7 140.2 175.4 139.7 175.2 138.8C175.1 137.8 176.5 135.7 176.5 134.8C176.5 133.8 176.1 133.5 175.5 133.0C174.9 132.5 174.0 131.5 172.8 131.5C171.5 131.5 169.0 132.8 168.0 133.0C167.0 133.2 167.5 133.3 166.5 133.0C165.5 132.7 162.9 131.9 161.8 131.2C160.6 130.6 160.1 129.8 159.8 129.2C159.4 128.7 159.6 128.4 159.8 127.8C159.9 127.1 160.6 126.3 160.8 125.5C160.9 124.7 160.8 123.6 160.5 122.8C160.2 121.9 158.9 121.3 158.8 120.2C158.6 119.2 159.6 117.5 159.8 116.2C159.9 115.0 159.2 115.0 159.8 112.5C160.2 110.0 161.9 103.8 162.8 101.2C163.6 98.7 164.7 97.9 165.0 97.0C165.3 96.1 165.1 96.3 164.8 96.0C164.4 95.7 163.8 95.2 163.0 95.0C162.2 94.8 161.0 94.8 160.0 94.5C159.0 94.2 158.4 93.4 157.2 93.0C156.1 92.6 155.8 92.4 153.0 92.2C150.2 92.1 143.8 91.7 140.8 92.0C137.8 92.3 136.3 93.9 135.0 94.2C133.7 94.6 133.3 94.5 132.8 94.2C132.2 94.0 131.7 93.6 131.5 93.0C131.3 92.4 131.5 91.2 131.8 90.5C132.0 89.8 132.1 89.2 132.8 88.8C133.4 88.2 134.9 87.9 135.5 87.5C136.1 87.1 136.5 87.2 136.5 86.2C136.5 85.3 135.5 84.0 135.2 81.8C135.0 79.5 134.5 75.7 134.8 73.0C135.0 70.3 136.4 67.4 136.8 65.8C137.1 64.1 136.8 63.8 137.0 63.0C137.2 62.2 137.5 61.7 138.2 61.2C139.0 60.8 140.9 60.8 141.8 60.5C142.6 60.2 144.0 59.7 143.5 59.5C143.0 59.3 140.4 59.0 138.5 59.5Z M186.8 156.5C187.0 157.5 187.2 158.7 186.8 160.5C186.2 162.3 185.2 165.2 183.8 167.2C182.3 169.2 179.5 171.6 178.0 172.5C176.5 173.4 175.3 172.3 174.5 172.5C173.7 172.7 174.0 173.3 173.0 173.5C172.0 173.7 169.6 174.1 168.2 173.8C166.9 173.4 165.7 171.9 164.8 171.5C163.8 171.1 163.2 170.9 162.5 171.2C161.8 171.6 161.0 173.1 160.5 173.5C160.0 173.9 160.2 173.8 159.8 173.5C159.3 173.2 158.6 172.2 158.0 171.8C157.4 171.3 157.0 170.9 156.0 170.8C155.0 170.6 153.0 171.1 152.0 171.0C151.0 170.9 150.6 170.5 150.0 170.0C149.4 169.5 148.5 168.6 148.2 168.0C148.0 167.4 148.0 166.8 148.2 166.2C148.5 165.7 148.8 165.0 149.8 164.8C150.8 164.5 153.0 164.8 154.2 164.5C155.5 164.2 156.5 163.4 157.5 163.2C158.5 163.1 159.2 163.8 160.2 163.8C161.3 163.8 162.9 163.6 164.0 163.2C165.1 162.9 165.9 162.0 167.0 161.5C168.1 161.0 170.0 160.7 170.8 160.2C171.5 159.8 171.6 159.4 171.8 159.0C171.9 158.6 172.3 158.4 171.8 158.0C171.2 157.6 168.7 157.0 168.2 156.5C167.8 156.0 168.7 155.5 169.2 155.2C169.8 155.0 170.9 155.1 171.5 155.2C172.1 155.4 172.0 155.9 173.0 156.0C174.0 156.1 176.0 156.2 177.8 155.8C179.5 155.2 182.5 153.2 183.8 153.0C185.0 152.8 185.0 153.7 185.5 154.2C186.0 154.8 186.5 155.5 186.8 156.5Z M142.0 153.0C142.5 152.8 142.9 152.9 143.5 153.2C144.1 153.6 145.4 154.7 145.8 155.2C146.1 155.8 145.9 156.1 145.8 156.5C145.6 156.9 145.4 157.2 145.0 157.5C144.6 157.8 143.9 158.2 143.2 158.0C142.6 157.8 141.7 157.1 141.2 156.5C140.8 155.9 140.6 155.1 140.8 154.5C140.9 153.9 141.5 153.2 142.0 153.0Z M193.5 149.0C193.9 149.0 194.1 149.3 194.2 149.8C194.4 150.2 194.3 151.2 194.2 151.8C194.2 152.3 194.1 152.7 193.8 153.0C193.4 153.3 192.6 153.8 192.2 153.8C191.9 153.8 191.6 153.4 191.5 153.0C191.4 152.6 191.4 151.8 191.5 151.2C191.6 150.8 191.7 150.4 192.0 150.0C192.3 149.6 193.1 149.0 193.5 149.0Z M180.0 144.8C180.5 145.5 180.1 145.5 180.0 145.8C179.9 146.0 181.1 146.2 179.2 146.2C177.4 146.3 171.5 146.1 169.0 146.2C166.5 146.4 165.3 146.9 164.0 147.0C162.7 147.1 161.9 146.9 161.2 146.8C160.6 146.6 160.2 146.2 160.0 146.0C159.8 145.8 159.0 145.9 160.0 145.2C161.0 144.6 164.7 142.8 166.0 142.2C167.3 141.8 167.4 142.6 168.0 142.2C168.6 141.9 169.0 140.5 169.5 140.0C170.0 139.5 170.2 139.3 170.8 139.2C171.3 139.2 172.0 139.1 173.0 139.5C174.0 139.9 175.8 140.6 177.0 141.5C178.2 142.4 179.5 144.0 180.0 144.8Z M154.5 110.0C154.4 110.9 153.2 112.3 153.0 114.2C152.8 116.2 153.3 120.3 153.2 121.8C153.2 123.2 153.6 121.7 152.8 122.8C151.9 123.8 149.8 126.6 148.0 128.0C146.2 129.4 143.6 130.8 142.0 131.2C140.4 131.7 139.8 131.4 138.2 130.8C136.7 130.1 133.8 128.4 132.5 127.5C131.2 126.6 130.8 126.2 130.2 125.5C129.7 124.8 130.1 124.4 129.0 123.2C127.9 122.1 124.8 119.8 123.8 118.8C122.8 117.7 123.1 117.7 123.0 117.0C122.9 116.3 123.0 115.2 123.2 114.5C123.5 113.8 124.1 113.1 124.8 112.8C125.4 112.4 126.3 112.0 127.2 112.2C128.2 112.5 128.6 113.5 130.5 114.2C132.4 115.0 136.8 116.3 138.8 116.8C140.8 117.2 141.5 117.2 142.5 116.8C143.5 116.3 144.1 114.8 145.0 114.0C145.9 113.2 147.5 112.5 148.0 112.0C148.5 111.5 148.3 111.5 147.8 111.2C147.2 111.0 145.5 111.0 144.8 110.8C144.0 110.5 143.7 110.0 143.5 109.8C143.3 109.5 143.4 109.3 143.8 109.0C144.1 108.7 145.1 108.5 145.8 108.0C146.4 107.5 147.0 106.1 147.5 105.8C148.0 105.4 148.2 105.6 148.8 106.0C149.2 106.4 149.7 107.5 150.5 108.0C151.3 108.5 152.8 108.7 153.5 109.0C154.2 109.3 154.6 109.1 154.5 110.0Z M137.0 99.2C137.2 98.8 138.2 97.8 139.5 97.5C140.8 97.2 143.3 97.4 145.0 97.8C146.7 98.1 148.8 99.0 149.8 99.5C150.8 100.0 151.8 100.7 151.0 101.0C150.2 101.3 146.9 101.3 144.8 101.2C142.6 101.2 139.3 100.8 138.0 100.5C136.7 100.2 136.8 99.8 137.0 99.2Z"/><path fill="#c98e75" stroke="#c98e75" stroke-width=".7" stroke-linejoin="round" d="M182.5 130.2C182.1 130.4 181.7 130.5 183.0 132.0C184.3 133.5 189.0 137.7 190.5 139.0C192.0 140.3 191.3 139.7 191.8 139.8C192.2 139.8 193.0 139.8 193.2 139.5C193.5 139.2 193.8 139.3 193.0 138.2C192.2 137.2 189.5 134.4 188.2 133.2C187.0 132.1 186.5 131.8 185.5 131.2C184.5 130.8 182.9 130.1 182.5 130.2Z M220.0 112.0C219.6 112.1 218.7 112.5 218.2 113.0C217.8 113.5 217.5 113.7 217.5 114.8C217.5 115.8 218.2 118.6 218.5 119.2C218.8 119.9 219.2 119.2 219.5 118.8C219.8 118.3 220.1 117.5 220.2 116.5C220.4 115.5 220.5 113.2 220.5 112.5C220.5 111.8 220.4 111.9 220.0 112.0Z M178.0 111.0C177.9 111.3 177.9 111.8 178.2 112.2C178.6 112.7 179.2 113.4 180.2 113.5C181.3 113.6 183.5 113.2 184.5 113.0C185.5 112.8 187.0 112.5 186.5 112.0C186.0 111.5 182.5 110.5 181.2 110.2C180.0 110.0 179.3 110.1 178.8 110.2C178.2 110.4 178.1 110.7 178.0 111.0Z M173.2 104.8C173.2 105.2 173.2 105.8 173.8 106.5C174.3 107.2 175.7 108.4 176.5 108.8C177.3 109.1 178.0 109.1 178.8 108.8C179.5 108.4 180.3 106.8 181.2 106.8C182.2 106.7 183.1 108.2 184.2 108.5C185.4 108.8 187.0 108.7 188.2 108.2C189.5 107.8 190.8 106.2 191.8 106.0C192.8 105.8 193.0 107.0 194.2 107.2C195.5 107.5 198.5 107.8 199.5 107.8C200.5 107.7 200.0 107.4 200.0 107.0C200.0 106.6 200.1 105.9 199.5 105.2C198.9 104.6 197.0 103.4 196.2 103.0C195.5 102.6 195.4 102.7 195.0 102.8C194.6 102.8 195.2 103.5 193.8 103.5C192.3 103.5 188.0 103.0 186.2 102.5C184.5 102.0 185.3 100.7 183.5 100.8C181.7 100.8 177.1 102.3 175.5 102.8C173.9 103.2 174.4 103.2 174.0 103.5C173.6 103.8 173.3 104.2 173.2 104.8Z M188.2 93.2C188.0 92.9 187.5 92.2 186.5 92.0C185.5 91.8 183.1 92.0 182.0 92.2C180.9 92.5 180.5 92.6 179.8 93.2C179.0 93.9 175.9 95.8 177.2 96.0C178.6 96.2 185.9 94.7 187.8 94.2C189.6 93.8 188.5 93.6 188.2 93.2Z M112.2 85.0C110.3 88.7 112.4 102.6 112.0 107.0C111.6 111.4 110.7 110.1 110.0 111.2C109.3 112.4 108.3 111.6 108.0 113.8C107.7 115.9 107.8 122.0 108.0 124.0C108.2 126.0 108.8 124.9 109.0 125.8C109.2 126.6 108.8 128.2 109.0 129.0C109.2 129.8 109.7 129.8 110.0 130.8C110.3 131.8 110.0 132.7 111.0 135.0C112.0 137.3 114.7 142.7 116.0 144.5C117.3 146.3 118.3 145.3 118.8 145.8C119.2 146.2 118.9 146.5 118.8 147.0C118.6 147.5 117.8 147.9 117.8 148.5C117.7 149.1 117.5 149.8 118.2 150.5C119.0 151.2 121.2 151.0 122.2 152.8C123.3 154.5 124.0 159.2 124.8 161.2C125.5 163.2 125.2 163.1 126.5 164.8C127.8 166.4 129.4 168.8 132.2 171.2C135.1 173.7 141.2 177.9 143.5 179.5C145.8 181.1 145.1 180.5 146.0 180.8C146.9 181.0 147.9 180.7 149.0 181.0C150.1 181.3 151.2 182.1 152.5 182.5C153.8 182.9 152.4 183.1 157.0 183.2C161.6 183.4 175.9 183.4 180.2 183.2C184.6 183.1 180.6 183.7 183.0 182.5C185.4 181.3 191.3 178.3 194.5 176.2C197.7 174.2 200.2 171.7 202.0 170.0C203.8 168.3 204.0 167.9 205.0 166.0C206.0 164.1 207.3 161.0 208.0 158.5C208.7 156.0 208.7 152.6 209.0 151.0C209.3 149.4 209.9 149.8 210.0 149.0C210.1 148.2 209.6 147.4 209.8 146.5C209.9 145.6 210.5 146.2 210.8 143.8C211.0 141.3 210.9 134.8 211.5 131.8C212.1 128.7 214.0 126.7 214.5 125.2C215.0 123.8 214.6 123.8 214.5 123.0C214.4 122.2 213.7 121.3 213.8 120.5C213.8 119.7 214.5 119.2 214.8 118.2C215.0 117.3 214.8 116.0 215.2 115.0C215.7 114.0 216.8 113.4 217.2 112.5C217.8 111.6 218.2 110.8 218.2 109.8C218.3 108.7 217.7 108.7 217.5 106.2C217.3 103.8 217.2 97.3 217.2 95.2C217.3 93.2 217.8 95.5 217.8 93.8C217.8 92.0 218.2 86.0 217.2 84.5C216.3 83.0 213.2 84.5 212.2 84.8C211.2 85.0 211.1 83.8 211.2 86.0C211.4 88.2 212.8 92.7 213.0 98.2C213.2 103.8 213.0 115.2 212.8 119.5C212.5 123.8 211.6 122.6 211.2 124.0C210.9 125.4 211.2 126.6 210.8 127.8C210.3 128.9 209.5 129.0 208.8 130.8C208.0 132.5 206.4 136.4 206.0 138.2C205.6 140.1 205.8 141.0 206.2 142.0C206.7 143.0 208.4 143.4 208.8 144.0C209.1 144.6 208.8 145.0 208.5 145.5C208.2 146.0 207.3 146.0 207.2 146.8C207.2 147.5 208.1 149.6 208.0 150.2C207.9 150.9 207.2 151.0 206.8 150.8C206.3 150.5 205.5 149.5 205.2 149.0C205.0 148.5 205.0 148.5 205.2 148.0C205.5 147.5 206.6 146.6 206.8 146.0C206.9 145.4 206.5 144.6 206.2 144.2C206.0 143.9 205.7 143.8 205.2 143.8C204.8 143.8 204.2 143.9 203.8 144.2C203.2 144.6 202.5 145.6 202.2 146.0C202.0 146.4 201.9 145.8 202.2 146.8C202.6 147.7 204.2 150.2 204.2 151.5C204.3 152.8 203.2 153.8 202.5 154.8C201.8 155.7 200.6 156.2 200.0 157.0C199.4 157.8 199.2 159.0 198.8 159.5C198.3 160.0 197.8 159.9 197.2 159.8C196.7 159.6 196.2 158.9 195.5 158.8C194.8 158.6 193.9 159.4 193.0 159.0C192.1 158.6 190.6 156.7 190.0 156.2C189.4 155.8 189.5 155.8 189.2 156.2C189.0 156.7 188.1 158.0 188.5 159.0C188.9 160.0 191.2 161.7 191.8 162.5C192.3 163.3 192.1 163.0 191.8 163.8C191.4 164.5 190.5 166.4 189.8 167.0C189.0 167.6 187.9 166.9 187.0 167.5C186.1 168.1 185.9 169.4 184.5 170.5C183.1 171.6 180.2 173.6 178.5 174.2C176.8 174.9 175.1 174.4 174.2 174.5C173.4 174.6 173.9 175.0 173.2 175.0C172.6 175.0 171.1 174.6 170.2 174.8C169.4 174.9 169.0 175.9 168.0 175.8C167.0 175.6 165.0 174.1 164.2 173.8C163.5 173.4 163.8 173.5 163.2 173.8C162.8 174.0 161.9 175.0 161.2 175.2C160.6 175.5 160.3 175.7 159.5 175.2C158.7 174.8 157.6 172.9 156.2 172.5C154.9 172.1 153.0 173.4 151.5 172.8C150.0 172.1 148.1 170.2 147.0 168.5C145.9 166.8 145.6 163.8 144.8 162.5C143.9 161.2 142.7 161.4 142.0 160.8C141.3 160.1 141.3 159.5 140.5 158.8C139.7 158.0 137.7 157.2 137.0 156.5C136.3 155.8 136.3 155.3 136.2 154.8C136.2 154.2 135.8 153.6 136.8 153.0C137.7 152.4 140.7 150.9 142.0 151.0C143.3 151.1 144.0 152.9 144.8 153.5C145.5 154.1 145.9 153.6 146.8 154.5C147.6 155.4 148.9 157.8 150.0 158.8C151.1 159.7 151.9 160.1 153.2 160.2C154.6 160.4 156.6 159.2 158.2 159.5C159.9 159.8 162.1 161.9 163.2 162.0C164.4 162.1 164.4 160.7 165.2 160.2C166.1 159.8 167.7 159.8 168.2 159.5C168.8 159.2 168.9 158.8 168.5 158.5C168.1 158.2 167.5 157.8 165.8 157.5C164.0 157.2 159.6 157.0 158.2 156.8C156.9 156.5 157.5 156.4 157.5 156.0C157.5 155.6 155.5 154.8 158.2 154.5C161.0 154.2 170.5 154.0 173.8 154.0C177.0 154.0 176.4 155.0 178.0 154.8C179.6 154.5 182.0 152.6 183.2 152.2C184.5 151.9 184.7 152.1 185.5 152.5C186.3 152.9 187.5 154.5 188.2 154.5C189.0 154.5 189.4 153.1 189.8 152.2C190.1 151.4 190.4 150.3 190.5 149.5C190.6 148.7 190.5 148.2 190.2 147.5C190.0 146.8 189.5 145.7 189.0 145.0C188.5 144.3 187.9 143.8 187.0 143.5C186.1 143.2 184.2 143.0 183.5 143.0C182.8 143.0 183.1 143.2 183.0 143.8C182.9 144.3 183.2 145.6 183.0 146.2C182.8 146.9 183.2 147.4 181.8 147.5C180.3 147.6 177.1 146.7 174.2 146.8C171.4 146.8 167.2 147.8 164.8 147.8C162.2 147.7 160.2 146.8 159.2 146.5C158.2 146.2 158.7 146.0 158.8 145.8C158.8 145.5 158.7 145.2 159.5 144.8C160.3 144.3 161.9 144.0 163.5 143.0C165.1 142.0 167.8 139.8 169.2 139.0C170.7 138.2 171.4 138.8 172.2 138.5C173.1 138.2 173.7 137.9 174.2 137.5C174.8 137.1 175.3 136.5 175.5 136.0C175.7 135.5 176.0 135.0 175.5 134.5C175.0 134.0 173.8 133.0 172.2 133.0C170.8 133.0 168.0 134.4 166.5 134.5C165.0 134.6 164.4 134.2 163.0 133.5C161.6 132.8 159.8 130.9 158.0 130.5C156.2 130.1 153.5 131.2 152.5 131.0C151.5 130.8 151.6 129.7 151.8 129.0C151.9 128.3 152.9 127.2 153.5 126.8C154.1 126.2 154.8 126.1 155.5 126.0C156.2 125.9 157.0 126.3 157.5 126.2C158.0 126.2 158.2 126.0 158.5 125.8C158.8 125.5 159.0 125.1 159.0 124.8C159.0 124.4 159.2 124.0 158.8 123.5C158.3 123.0 157.0 122.1 156.2 122.0C155.5 121.9 154.9 122.3 154.2 122.8C153.6 123.2 153.0 123.5 152.2 124.5C151.5 125.5 150.7 127.3 149.8 128.5C148.8 129.7 146.9 130.8 146.5 131.8C146.1 132.7 147.2 132.6 147.2 134.0C147.2 135.4 147.0 138.6 146.5 140.2C146.0 141.9 144.8 143.1 144.2 143.8C143.7 144.4 143.7 144.2 143.2 144.2C142.8 144.3 142.5 144.4 141.8 144.0C141.0 143.6 139.2 142.9 138.8 141.8C138.3 140.6 139.6 138.6 139.2 137.2C138.9 135.9 137.6 134.4 136.8 133.5C135.9 132.6 135.5 133.1 134.0 131.8C132.5 130.4 129.7 127.0 128.0 125.5C126.3 124.0 125.0 124.0 123.8 122.5C122.5 121.0 120.7 118.2 120.2 116.8C119.8 115.2 120.5 114.6 121.2 113.5C122.0 112.4 123.8 110.6 124.5 110.0C125.2 109.4 124.2 109.4 125.2 110.0C126.3 110.6 129.4 112.8 131.0 113.5C132.6 114.2 133.4 114.1 134.8 114.2C136.1 114.4 137.7 114.4 139.2 114.2C140.8 114.1 143.3 113.5 144.2 113.2C145.2 113.0 144.9 112.7 145.0 112.5C145.1 112.3 145.7 112.2 144.8 112.0C143.8 111.8 140.6 111.3 139.5 111.0C138.4 110.7 138.5 110.3 138.2 110.0C138.0 109.7 138.1 109.5 138.2 109.2C138.4 109.0 138.6 108.8 139.0 108.8C139.4 108.7 139.7 109.2 140.8 109.0C141.8 108.8 144.4 108.1 145.5 107.5C146.6 106.9 146.8 105.6 147.2 105.2C147.8 104.9 147.9 104.8 148.5 105.2C149.1 105.7 150.3 107.2 151.0 107.8C151.7 108.3 152.2 108.4 152.8 108.5C153.3 108.6 153.8 108.7 154.2 108.5C154.7 108.3 155.2 107.6 155.5 107.5C155.8 107.4 156.1 107.4 156.2 107.8C156.4 108.1 156.5 108.8 156.2 109.5C156.0 110.2 155.2 111.3 155.0 112.0C154.8 112.7 154.8 113.0 155.0 113.8C155.2 114.5 155.6 115.7 156.0 116.2C156.4 116.8 157.2 117.0 157.5 117.0C157.8 117.0 157.9 116.9 158.0 116.2C158.1 115.6 157.9 114.2 158.2 113.0C158.6 111.8 159.7 110.3 160.2 108.8C160.8 107.2 161.5 105.0 161.8 103.5C162.0 102.0 161.9 100.8 161.8 99.8C161.6 98.8 161.5 98.2 161.0 97.5C160.5 96.8 159.9 96.0 158.5 95.2C157.1 94.5 154.5 93.6 152.5 93.2C150.5 92.9 148.1 93.3 146.8 93.2C145.4 93.2 145.5 92.8 144.5 92.8C143.5 92.8 142.0 92.7 140.5 93.2C139.0 93.8 137.4 95.8 135.5 96.2C133.6 96.8 130.2 96.3 129.0 96.2C127.8 96.2 128.5 96.5 128.5 95.8C128.5 95.0 129.2 93.4 129.2 92.0C129.2 90.6 128.5 88.7 128.5 87.5C128.5 86.3 128.9 86.2 129.0 85.0C129.1 83.8 129.1 81.5 129.0 80.5C128.9 79.5 129.2 78.8 128.5 79.0C127.8 79.2 125.6 81.2 125.0 82.0C124.4 82.8 125.0 83.0 124.8 83.5C124.5 84.0 125.8 84.5 123.8 84.8C121.7 85.0 114.2 81.3 112.2 85.0Z M134.5 99.5C134.8 99.1 135.4 98.2 136.0 97.8C136.6 97.3 136.5 96.9 138.0 96.8C139.5 96.6 142.8 96.7 144.8 97.0C146.8 97.3 148.7 98.0 150.0 98.5C151.3 99.0 152.0 99.7 152.8 100.2C153.5 100.8 154.0 101.4 154.2 101.8C154.5 102.1 154.5 102.3 154.2 102.5C154.0 102.7 153.5 103.1 152.5 103.0C151.5 102.9 149.3 101.7 148.2 101.8C147.2 101.8 147.4 103.3 146.2 103.2C145.1 103.2 143.0 101.6 141.2 101.2C139.5 100.9 137.1 101.4 136.0 101.2C134.9 101.1 134.8 100.5 134.5 100.2C134.2 100.0 134.2 99.9 134.5 99.5Z"/><path fill="#ad755f" stroke="#ad755f" stroke-width=".7" stroke-linejoin="round" d="M188.8 148.5C188.6 147.9 188.3 147.3 187.8 146.8C187.2 146.2 186.1 145.2 185.5 145.0C184.9 144.8 184.5 145.4 184.2 145.8C184.0 146.1 184.0 146.8 183.8 147.2C183.5 147.7 183.8 148.1 182.5 148.2C181.2 148.4 177.5 147.9 176.0 148.0C174.5 148.1 175.6 148.6 173.8 148.8C171.9 148.9 166.7 148.9 165.0 148.8C163.3 148.6 164.7 148.3 163.5 148.0C162.3 147.7 160.4 147.1 158.0 147.0C155.6 146.9 151.0 147.7 149.2 147.5C147.5 147.3 147.7 146.0 147.2 145.8C146.8 145.5 146.9 145.5 146.5 145.8C146.1 146.0 145.2 146.9 144.8 147.5C144.3 148.1 143.9 149.0 143.8 149.5C143.6 150.0 143.4 150.1 143.8 150.8C144.1 151.4 144.9 152.9 145.8 153.5C146.6 154.1 147.8 154.3 148.8 154.5C149.8 154.7 150.2 155.0 151.8 154.8C153.2 154.5 155.3 153.5 157.8 153.2C160.2 153.0 163.6 153.7 166.5 153.5C169.4 153.3 172.7 152.2 175.0 152.0C177.3 151.8 178.8 152.6 180.2 152.5C181.7 152.4 182.5 151.6 183.8 151.5C185.0 151.4 186.7 151.9 187.5 151.8C188.3 151.6 188.5 151.0 188.8 150.5C189.0 150.0 188.9 149.1 188.8 148.5Z M147.8 139.0C147.9 140.7 149.0 142.0 149.5 142.8C150.0 143.5 149.6 143.4 150.5 143.8C151.4 144.1 153.5 144.8 154.8 145.0C156.0 145.2 156.4 145.4 157.8 145.0C159.1 144.6 161.1 143.8 163.0 142.8C164.9 141.7 167.3 139.4 169.0 138.5C170.7 137.6 172.3 137.8 173.2 137.5C174.2 137.2 174.2 136.8 174.5 136.5C174.8 136.2 174.8 135.8 174.8 135.5C174.7 135.2 174.6 135.0 174.2 134.8C173.9 134.5 173.2 134.3 172.5 134.2C171.8 134.2 171.1 134.0 170.2 134.2C169.4 134.5 168.5 135.3 167.5 135.5C166.5 135.7 165.5 135.9 164.0 135.2C162.5 134.6 159.8 132.4 158.5 131.8C157.2 131.1 157.0 131.4 156.0 131.5C155.0 131.6 153.1 132.7 152.2 132.5C151.4 132.3 151.1 130.8 150.8 130.5C150.4 130.2 150.3 130.1 150.0 130.5C149.7 130.9 149.1 131.3 148.8 132.8C148.4 134.2 147.6 137.3 147.8 139.0Z M150.2 103.2C150.0 103.6 149.8 104.5 150.0 105.2C150.2 106.0 151.2 107.1 151.8 107.5C152.2 107.9 152.5 107.9 153.0 107.5C153.5 107.1 155.0 106.0 154.8 105.2C154.5 104.5 152.2 103.6 151.5 103.2C150.8 102.9 150.5 102.9 150.2 103.2Z M175.8 106.0C175.9 106.5 176.3 107.2 176.8 107.5C177.2 107.8 177.9 108.1 178.5 107.8C179.1 107.4 179.9 105.9 180.5 105.5C181.1 105.1 181.5 105.0 182.0 105.2C182.5 105.5 182.7 106.6 183.5 107.0C184.3 107.4 185.8 107.8 186.8 107.8C187.7 107.8 188.6 107.4 189.2 107.0C189.9 106.6 190.2 106.0 190.5 105.5C190.8 105.0 191.0 104.6 190.8 104.2C190.5 103.9 189.9 103.5 188.8 103.2C187.6 103.0 185.0 103.0 183.8 103.0C182.5 103.0 181.7 103.5 181.0 103.5C180.3 103.5 180.3 102.6 179.5 102.8C178.7 102.9 176.6 104.0 176.0 104.5C175.4 105.0 175.6 105.5 175.8 106.0Z M122.5 103.5C122.3 104.1 122.4 104.8 123.8 106.2C125.1 107.7 128.8 111.2 130.5 112.0C132.2 112.8 133.0 111.6 134.0 111.0C135.0 110.4 135.1 108.8 136.8 108.2C138.4 107.7 142.3 107.8 143.8 107.5C145.2 107.2 144.8 107.1 145.2 106.8C145.7 106.4 146.2 105.8 146.2 105.2C146.3 104.8 146.3 104.1 145.5 103.8C144.7 103.4 142.5 103.3 141.2 103.0C140.0 102.7 139.8 101.8 138.2 101.8C136.8 101.7 133.4 102.5 132.2 102.5C131.1 102.5 131.6 102.2 131.2 101.8C130.9 101.3 130.6 100.1 130.2 99.8C129.9 99.4 129.9 99.3 129.0 99.8C128.1 100.2 126.1 101.9 125.0 102.5C123.9 103.1 122.7 102.9 122.5 103.5Z M142.5 94.5C142.1 94.7 142.2 94.8 142.2 95.0C142.3 95.2 141.8 95.5 143.0 95.8C144.2 96.0 147.9 96.2 149.2 96.5C150.6 96.8 150.2 96.6 151.2 97.5C152.3 98.4 154.9 100.6 155.8 101.8C156.6 102.9 156.3 103.7 156.2 104.2C156.2 104.8 155.4 104.8 155.5 105.2C155.6 105.7 156.6 106.0 157.0 106.8C157.4 107.5 157.4 109.1 157.8 109.5C158.1 109.9 158.5 109.6 159.0 109.0C159.5 108.4 160.2 106.8 160.5 105.8C160.8 104.7 160.8 103.8 160.8 102.8C160.7 101.7 160.3 100.4 160.0 99.5C159.7 98.6 159.6 98.2 158.8 97.5C157.9 96.8 156.0 96.0 154.8 95.5C153.5 95.0 152.5 94.6 151.2 94.5C150.0 94.4 148.4 94.8 147.2 94.8C146.1 94.7 145.3 94.0 144.5 94.0C143.7 94.0 142.9 94.3 142.5 94.5Z M216.0 84.8C215.4 84.7 213.6 84.7 213.0 85.0C212.4 85.3 212.1 84.2 212.2 86.8C212.4 89.3 213.6 95.9 213.8 100.5C213.9 105.1 213.2 111.8 213.2 114.2C213.2 116.7 213.3 115.5 213.8 115.2C214.2 115.0 215.5 113.5 216.0 112.8C216.5 112.0 216.9 113.7 217.0 110.8C217.1 107.8 216.7 98.0 216.8 95.2C216.8 92.5 217.2 95.6 217.2 94.0C217.2 92.4 217.0 87.0 216.8 85.5C216.5 84.0 216.6 84.8 216.0 84.8Z M112.2 85.0C110.7 89.3 112.1 106.0 112.0 110.5C111.9 115.0 112.0 111.3 111.5 111.8C111.0 112.2 109.8 112.5 109.2 113.0C108.7 113.5 108.2 112.7 108.0 114.5C107.8 116.3 107.8 122.1 108.0 124.0C108.2 125.9 108.8 124.9 109.0 125.8C109.2 126.6 108.8 128.2 109.0 129.0C109.2 129.8 109.7 129.8 110.0 130.8C110.3 131.8 110.1 132.9 111.0 135.0C111.9 137.1 114.4 142.0 115.2 143.5C116.1 145.0 115.6 144.2 116.2 144.2C116.9 144.3 118.6 143.8 119.2 144.0C119.9 144.2 120.1 144.7 120.2 145.2C120.4 145.8 120.3 146.6 120.0 147.2C119.7 147.9 118.8 148.5 118.5 149.0C118.2 149.5 117.6 149.7 118.2 150.2C118.9 150.8 121.4 150.5 122.5 152.2C123.6 154.0 124.2 158.8 125.0 161.0C125.8 163.2 126.0 164.0 127.2 165.8C128.5 167.5 129.5 169.0 132.2 171.2C135.0 173.5 141.2 177.9 143.5 179.5C145.8 181.1 145.1 180.5 146.0 180.8C146.9 181.0 147.9 180.7 149.0 181.0C150.1 181.3 151.2 182.1 152.5 182.5C153.8 182.9 152.4 183.1 157.0 183.2C161.6 183.4 175.9 183.4 180.2 183.2C184.6 183.1 180.6 183.7 183.0 182.5C185.4 181.3 191.3 178.3 194.5 176.2C197.7 174.2 200.3 171.8 202.0 170.0C203.7 168.2 204.0 167.0 204.8 165.2C205.5 163.5 206.5 160.9 206.8 159.8C207.0 158.6 207.1 158.4 206.5 158.5C205.9 158.6 204.1 160.1 203.2 160.5C202.4 160.9 201.9 160.4 201.2 161.0C200.6 161.6 200.3 163.5 199.5 164.0C198.7 164.5 197.1 164.0 196.5 164.2C195.9 164.5 195.8 164.8 195.8 165.2C195.7 165.7 196.1 166.5 196.0 167.0C195.9 167.5 196.2 167.4 195.2 168.0C194.2 168.6 191.2 169.8 190.0 170.5C188.8 171.2 188.6 171.8 187.8 172.2C186.9 172.7 185.8 172.8 185.0 173.2C184.2 173.8 183.9 174.8 183.0 175.2C182.1 175.7 180.5 175.5 179.5 175.8C178.5 176.0 178.7 176.7 177.2 177.0C175.8 177.3 172.3 177.2 171.0 177.5C169.7 177.8 170.1 178.4 169.2 178.5C168.4 178.6 166.7 178.2 165.8 178.0C164.8 177.8 164.4 177.0 163.5 177.0C162.6 177.0 161.6 178.1 160.2 177.8C158.9 177.4 156.8 175.3 155.2 174.8C153.8 174.2 152.8 175.0 151.2 174.2C149.7 173.5 147.1 171.2 146.0 170.2C144.9 169.2 145.3 168.9 144.8 168.2C144.2 167.6 143.0 166.8 142.5 166.2C142.0 165.7 142.5 165.5 142.0 165.0C141.5 164.5 140.8 164.3 139.8 163.2C138.8 162.2 137.1 160.1 136.0 158.5C134.9 156.9 133.9 155.4 133.2 153.8C132.6 152.1 132.3 150.0 132.2 148.8C132.2 147.5 132.4 147.2 132.8 146.2C133.1 145.3 134.1 144.1 134.5 143.2C134.9 142.4 134.9 141.9 135.0 141.0C135.1 140.1 135.1 138.6 135.0 137.8C134.9 136.9 134.8 136.8 134.2 136.0C133.7 135.2 132.1 134.0 131.5 133.2C130.9 132.5 131.4 132.2 130.5 131.2C129.6 130.2 127.4 128.1 126.2 127.2C125.1 126.4 124.5 126.2 123.5 126.0C122.5 125.8 121.2 126.4 120.5 126.2C119.8 126.1 119.6 125.7 119.2 125.0C118.9 124.3 118.4 125.5 118.2 122.2C118.1 119.0 118.2 110.1 118.5 105.5C118.8 100.9 119.4 97.2 120.0 94.5C120.6 91.8 121.9 90.8 122.2 89.2C122.6 87.8 122.4 86.2 122.2 85.5C122.1 84.8 123.2 84.8 121.5 84.8C119.8 84.7 113.8 80.7 112.2 85.0Z M115.0 135.5C115.3 135.4 115.6 135.3 116.2 135.8C116.9 136.2 118.5 137.7 119.0 138.2C119.5 138.8 119.1 138.9 119.0 139.2C118.9 139.6 118.6 140.1 118.2 140.2C117.9 140.4 117.6 140.7 117.0 140.2C116.4 139.8 115.2 138.4 114.8 137.8C114.3 137.1 114.2 136.9 114.2 136.5C114.3 136.1 114.7 135.6 115.0 135.5Z"/><path fill="#915e4b" stroke="#915e4b" stroke-width=".7" stroke-linejoin="round" d="M124.8 153.0C124.8 154.3 125.0 157.8 125.5 160.0C126.0 162.2 127.1 164.9 128.0 166.5C128.9 168.1 129.2 168.2 130.8 169.8C132.3 171.2 135.4 173.9 137.5 175.5C139.6 177.1 142.1 178.6 143.5 179.5C144.9 180.4 145.1 180.5 146.0 180.8C146.9 181.0 147.9 180.7 149.0 181.0C150.1 181.3 151.2 182.1 152.5 182.5C153.8 182.9 152.4 183.1 157.0 183.2C161.6 183.4 176.0 183.3 180.2 183.2C184.5 183.2 179.9 183.9 182.2 182.8C184.6 181.6 191.6 178.0 194.5 176.2C197.4 174.5 198.4 173.3 199.5 172.2C200.6 171.2 201.0 170.5 201.2 170.0C201.5 169.5 201.2 169.4 201.0 169.2C200.8 169.1 200.8 168.6 200.2 169.0C199.7 169.4 198.9 170.9 197.8 171.8C196.6 172.6 194.5 173.8 193.5 174.2C192.5 174.8 192.0 174.5 191.5 174.8C191.0 175.0 190.6 175.1 190.2 175.8C189.9 176.4 190.0 178.2 189.5 178.5C189.0 178.8 187.8 177.5 187.2 177.5C186.7 177.5 186.8 178.2 186.0 178.2C185.2 178.3 183.6 177.9 182.8 178.0C181.9 178.1 181.6 178.9 181.0 179.0C180.4 179.1 180.1 178.5 179.2 178.8C178.4 179.0 178.1 180.0 175.8 180.2C173.4 180.5 167.3 180.6 165.2 180.5C163.2 180.4 164.4 179.8 163.5 179.8C162.6 179.7 161.5 180.5 159.8 180.0C158.0 179.5 154.6 177.5 153.2 177.0C151.9 176.5 152.6 177.2 151.8 177.0C150.9 176.8 148.9 176.0 148.0 175.5C147.1 175.0 146.9 174.3 146.5 174.0C146.1 173.7 145.9 174.2 145.5 173.8C145.1 173.3 144.8 172.3 144.0 171.5C143.2 170.7 141.8 169.9 140.8 169.0C139.8 168.1 139.0 167.3 138.0 166.0C137.0 164.7 135.8 162.2 134.8 161.2C133.7 160.2 132.7 160.7 131.5 160.0C130.3 159.3 128.7 158.5 127.8 157.2C126.8 156.0 126.4 153.1 126.0 152.2C125.6 151.4 125.7 151.9 125.5 152.0C125.3 152.1 124.8 151.7 124.8 153.0Z M187.0 148.8C186.9 148.4 186.6 148.0 186.2 147.8C185.9 147.5 185.5 147.3 185.0 147.5C184.5 147.7 183.8 148.8 183.0 149.0C182.2 149.2 181.3 148.8 180.2 149.0C179.2 149.2 179.1 149.8 176.5 150.0C173.9 150.2 167.1 150.1 164.8 150.0C162.4 149.9 163.5 149.4 162.2 149.2C161.0 149.1 158.5 149.4 157.2 149.2C156.0 149.1 156.2 148.4 154.5 148.2C152.8 148.1 148.6 148.0 147.0 148.2C145.4 148.5 145.4 149.2 145.0 149.8C144.6 150.2 144.6 150.7 144.8 151.2C144.9 151.8 145.3 152.6 146.0 153.0C146.7 153.4 147.2 153.8 148.8 153.8C150.3 153.7 152.8 152.9 155.5 152.8C158.2 152.6 163.0 153.0 165.2 153.0C167.5 153.0 167.6 152.9 169.2 152.5C170.9 152.1 173.6 150.9 175.0 150.8C176.4 150.6 176.0 151.5 177.8 151.5C179.5 151.5 184.2 151.2 185.8 151.0C187.3 150.8 186.8 150.4 187.0 150.0C187.2 149.6 187.1 149.1 187.0 148.8Z M148.8 136.5C148.8 137.0 148.9 137.2 149.2 137.2C149.6 137.3 150.6 136.9 151.0 137.0C151.4 137.1 151.6 137.4 151.8 137.8C151.9 138.1 151.9 138.5 151.8 139.0C151.6 139.5 150.9 140.2 150.8 140.8C150.6 141.3 150.6 141.9 150.8 142.2C150.9 142.6 150.8 142.7 151.5 143.0C152.2 143.3 153.6 144.0 154.8 144.2C155.9 144.5 157.0 144.5 158.2 144.2C159.5 144.0 160.5 143.7 162.0 142.8C163.5 141.8 165.5 139.7 167.2 138.8C169.0 137.8 171.4 137.7 172.5 137.2C173.6 136.8 173.8 136.4 173.8 136.0C173.8 135.6 173.0 135.2 172.5 135.0C172.0 134.8 171.3 134.8 170.5 135.0C169.7 135.2 168.5 136.2 167.5 136.5C166.5 136.8 166.1 137.6 164.5 137.0C162.9 136.4 159.4 133.5 158.0 132.8C156.6 132.0 156.8 132.6 156.0 132.8C155.2 132.9 154.0 133.6 153.2 133.8C152.5 133.9 152.2 133.9 151.8 133.8C151.2 133.6 150.7 132.7 150.2 132.8C149.8 132.8 149.5 133.4 149.2 134.0C149.0 134.6 148.8 136.0 148.8 136.5Z M215.2 106.8C214.9 106.5 214.2 108.3 214.0 109.2C213.8 110.2 214.1 111.8 214.2 112.2C214.4 112.8 214.7 112.5 215.0 112.2C215.3 112.0 216.0 111.4 216.0 110.5C216.0 109.6 215.6 107.0 215.2 106.8Z M183.8 104.2C183.4 104.5 183.5 104.6 183.8 105.0C184.0 105.4 185.0 106.4 185.5 106.8C186.0 107.1 186.3 107.2 186.8 107.0C187.2 106.8 188.2 106.3 188.0 105.8C187.8 105.2 186.5 104.0 185.8 103.8C185.0 103.5 184.1 104.0 183.8 104.2Z M127.2 107.0C127.4 107.7 128.3 108.8 128.8 109.2C129.2 109.8 129.6 109.9 130.0 110.0C130.4 110.1 130.0 110.5 131.2 110.0C132.5 109.5 136.0 107.7 137.2 107.0C138.5 106.3 137.5 105.8 138.5 105.8C139.5 105.7 142.5 106.8 143.5 106.8C144.5 106.7 144.2 105.9 144.2 105.5C144.3 105.1 144.0 104.8 143.8 104.5C143.5 104.2 143.0 103.9 142.5 103.8C142.0 103.6 141.5 103.5 140.8 103.8C140.0 104.0 138.7 105.1 137.8 105.0C136.8 104.9 136.2 103.0 135.0 103.0C133.8 103.0 131.9 104.6 130.8 105.0C129.6 105.4 128.6 104.9 128.0 105.2C127.4 105.6 127.1 106.3 127.2 107.0Z M157.5 100.5C157.2 100.5 157.0 100.3 157.0 101.0C157.0 101.7 157.3 104.0 157.5 104.8C157.7 105.5 157.8 105.6 158.0 105.8C158.2 105.9 158.5 105.9 158.8 105.8C159.0 105.6 159.2 105.5 159.2 105.0C159.3 104.5 159.4 103.4 159.2 102.8C159.1 102.1 158.8 101.4 158.5 101.0C158.2 100.6 157.8 100.5 157.5 100.5Z M214.0 89.5C213.7 89.9 213.7 91.6 213.8 93.0C213.8 94.4 214.1 96.9 214.2 98.0C214.4 99.1 214.5 99.2 214.8 99.5C215.0 99.8 215.3 99.8 215.5 99.8C215.7 99.7 215.9 100.2 216.0 99.0C216.1 97.8 216.3 93.7 216.2 92.2C216.2 90.8 215.9 91.0 215.5 90.5C215.1 90.0 214.3 89.1 214.0 89.5Z M113.5 84.8C112.5 84.9 112.8 84.3 112.8 85.5C112.7 86.7 113.0 89.8 113.0 92.0C113.0 94.2 112.5 95.4 112.5 98.8C112.5 102.1 113.1 109.8 113.0 112.2C112.9 114.7 112.3 113.2 111.8 113.5C111.2 113.8 110.2 113.5 109.8 113.8C109.2 114.0 109.0 114.3 108.8 115.2C108.5 116.2 108.3 118.0 108.2 119.5C108.2 121.0 108.2 122.7 108.5 124.0C108.8 125.3 109.6 127.0 110.0 127.5C110.4 128.0 110.5 127.3 110.8 126.8C111.0 126.2 111.1 124.8 111.2 124.2C111.4 123.8 111.5 123.8 111.8 123.8C112.0 123.7 112.3 122.8 112.5 124.0C112.7 125.2 112.5 129.2 113.0 130.8C113.5 132.2 115.1 132.6 115.8 133.0C116.4 133.4 116.5 133.8 117.0 133.2C117.5 132.8 118.5 130.9 118.8 130.0C119.0 129.1 119.0 129.3 118.8 128.0C118.5 126.7 117.3 123.9 117.0 122.2C116.7 120.6 116.9 119.2 117.0 118.0C117.1 116.8 117.4 117.9 117.5 115.0C117.6 112.1 117.4 105.1 117.8 100.8C118.1 96.4 119.2 91.3 119.5 88.8C119.8 86.2 119.6 86.2 119.5 85.5C119.4 84.8 119.8 84.9 118.8 84.8C117.8 84.6 114.5 84.6 113.5 84.8Z"/><path fill="#74493c" stroke="#74493c" stroke-width=".7" stroke-linejoin="round" d="M128.8 163.0C128.8 163.8 128.9 166.1 129.2 167.2C129.6 168.4 129.5 168.5 131.0 170.0C132.5 171.5 136.0 174.5 138.5 176.2C141.0 178.0 144.2 180.0 146.0 180.8C147.8 181.5 147.9 180.7 149.0 181.0C150.1 181.3 151.2 182.1 152.5 182.5C153.8 182.9 152.6 183.1 157.0 183.2C161.4 183.4 175.2 183.4 179.0 183.2C182.8 183.1 179.7 182.8 179.8 182.5C179.8 182.2 179.7 181.2 179.2 181.2C178.8 181.2 178.0 182.4 177.0 182.5C176.0 182.6 175.5 181.8 173.2 181.8C171.0 181.7 165.5 182.1 163.5 182.0C161.5 181.9 162.2 181.4 161.5 181.2C160.8 181.1 160.0 181.5 159.0 181.2C158.0 181.0 156.8 180.0 155.2 179.5C153.7 179.0 151.0 178.8 149.5 178.2C148.0 177.8 147.1 177.4 146.0 176.5C144.9 175.6 144.0 174.0 142.8 173.0C141.5 172.0 140.1 171.8 138.8 170.5C137.4 169.2 136.1 166.3 134.8 165.0C133.4 163.7 131.7 163.2 130.8 162.8C129.8 162.3 129.6 162.5 129.2 162.5C128.9 162.5 128.8 162.2 128.8 163.0Z M145.5 151.0C145.6 151.5 146.0 152.4 146.5 152.8C147.0 153.1 146.4 153.4 148.2 153.2C150.1 153.1 154.6 152.2 157.5 152.0C160.4 151.8 164.0 152.3 165.5 152.2C167.0 152.2 166.5 152.0 166.5 151.8C166.5 151.5 165.8 151.1 165.2 151.0C164.7 150.9 163.9 151.1 163.2 151.0C162.6 150.9 162.4 150.4 161.2 150.2C160.1 150.1 158.0 150.5 156.5 150.2C155.0 150.0 153.5 149.2 152.0 149.0C150.5 148.8 148.5 149.1 147.5 149.2C146.5 149.4 146.3 149.7 146.0 150.0C145.7 150.3 145.4 150.5 145.5 151.0Z M153.2 139.8C153.6 141.0 154.2 142.6 155.0 143.2C155.8 143.9 156.9 143.9 158.0 143.8C159.1 143.6 160.0 143.4 161.5 142.5C163.0 141.6 165.3 139.2 167.0 138.2C168.7 137.3 170.6 137.4 171.5 137.0C172.4 136.6 172.6 136.2 172.5 136.0C172.4 135.8 171.6 135.2 170.8 135.5C169.9 135.8 168.2 137.0 167.2 137.5C166.3 138.0 165.8 138.1 165.0 138.2C164.2 138.4 163.9 138.9 162.8 138.2C161.6 137.6 159.5 135.2 158.2 134.5C157.0 133.8 156.1 133.8 155.2 134.0C154.4 134.2 153.3 134.5 153.0 135.5C152.7 136.5 152.9 138.5 153.2 139.8Z M115.2 125.5C115.0 125.7 114.7 125.9 114.5 126.5C114.3 127.1 114.2 128.4 114.2 129.0C114.3 129.6 114.5 129.7 114.8 130.0C115.0 130.3 115.6 130.8 116.0 130.8C116.4 130.8 116.8 130.6 117.0 130.0C117.2 129.4 117.4 127.8 117.2 127.0C117.1 126.2 116.6 125.8 116.2 125.5C115.9 125.2 115.5 125.3 115.2 125.5Z M110.8 114.8C110.4 114.5 110.0 114.7 109.8 115.0C109.5 115.3 109.3 115.5 109.2 116.5C109.2 117.5 109.2 120.2 109.2 121.2C109.3 122.3 109.5 123.1 109.8 123.0C110.0 122.9 110.7 121.5 111.0 120.5C111.3 119.5 111.8 117.7 111.8 116.8C111.7 115.8 111.1 115.0 110.8 114.8Z M116.5 93.0C116.2 92.9 115.9 93.0 115.5 93.2C115.1 93.5 114.6 93.5 114.2 94.8C113.9 96.0 113.3 99.0 113.2 100.8C113.2 102.5 113.4 104.2 113.8 105.2C114.1 106.2 115.1 106.5 115.5 106.8C115.9 107.0 116.0 106.8 116.2 106.5C116.5 106.2 116.7 106.0 116.8 105.0C116.8 104.0 116.7 101.5 116.8 100.5C116.8 99.5 117.2 99.8 117.2 98.8C117.3 97.7 117.4 95.0 117.2 94.0C117.1 93.0 116.8 93.1 116.5 93.0Z"/></g>
        <path fill="#8e6544" d="M218.2 49.8C218.1 48.2 216.5 44.7 215.2 43.5C214.0 42.3 212.9 43.9 211.0 42.5C209.1 41.1 205.5 37.0 203.8 35.0C202.0 33.0 202.0 31.6 200.8 30.5C199.5 29.4 197.4 29.3 196.2 28.5C195.1 27.7 195.6 26.6 193.8 25.8C191.9 24.9 187.5 23.6 185.0 23.5C182.5 23.4 179.8 24.9 178.5 25.0C177.2 25.1 177.6 24.9 177.2 24.2C176.9 23.6 176.7 21.9 176.2 21.2C175.8 20.6 175.6 20.6 174.8 20.5C173.9 20.4 173.7 19.8 171.2 20.8C168.8 21.7 162.9 25.1 160.2 26.0C157.6 26.9 156.9 26.2 155.2 26.0C153.6 25.8 151.5 24.5 150.2 24.5C149.0 24.5 148.6 25.8 147.5 26.0C146.4 26.2 145.7 25.6 143.5 26.0C141.3 26.4 136.5 27.8 134.2 28.5C132.0 29.2 131.2 29.7 130.2 30.5C129.3 31.3 129.4 32.3 128.5 33.2C127.6 34.2 126.3 33.8 124.8 36.2C123.2 38.7 121.0 45.5 119.2 48.0C117.5 50.5 115.4 50.3 114.0 51.5C112.6 52.7 111.8 52.9 111.0 55.0C110.2 57.1 109.3 61.8 109.0 64.2C108.7 66.7 108.7 67.7 109.0 69.5C109.3 71.3 110.5 73.0 111.0 75.2C111.5 77.5 111.6 81.5 112.0 83.0C112.4 84.5 111.6 84.3 113.5 84.5C115.4 84.7 121.1 85.2 123.5 84.2C125.9 83.2 127.3 80.0 128.0 78.5C128.7 77.0 127.3 76.3 127.8 75.0C128.2 73.7 130.1 72.8 130.8 70.8C131.4 68.8 130.5 64.9 131.8 63.0C133.0 61.1 136.0 60.3 138.2 59.5C140.5 58.7 143.3 58.5 145.5 58.2C147.7 58.0 147.4 58.9 151.2 58.2C155.1 57.6 164.1 55.1 168.5 54.5C172.9 53.9 175.0 54.7 177.5 54.5C180.0 54.3 182.4 53.3 183.8 53.2C185.1 53.2 184.0 53.9 185.5 54.0C187.0 54.1 190.3 53.6 192.5 54.0C194.7 54.4 196.8 55.2 198.5 56.5C200.2 57.8 201.0 58.7 203.0 61.8C205.0 64.8 208.8 71.3 210.2 75.0C211.8 78.7 211.2 82.2 212.0 83.8C212.8 85.3 214.4 84.6 215.2 84.5C216.1 84.4 216.7 84.6 217.0 83.2C217.3 81.9 216.7 78.2 217.0 76.2C217.3 74.3 218.5 73.8 218.8 71.8C219.0 69.7 218.9 66.0 218.8 64.0C218.6 62.0 217.8 60.9 217.8 59.5C217.8 58.1 219.0 56.6 218.8 55.5C218.5 54.4 216.3 54.0 216.2 53.0C216.2 52.0 218.4 51.3 218.2 49.8Z"/><path fill="#6a482d" stroke="#6a482d" stroke-width=".7" stroke-linejoin="round" d="M110.0 69.2C109.9 72.8 111.9 81.0 112.5 83.5C113.1 86.0 112.5 84.3 113.8 84.5C115.0 84.7 118.7 84.7 120.0 84.5C121.3 84.3 120.5 86.6 121.5 83.2C122.5 79.9 124.8 67.9 126.2 64.5C127.7 61.1 128.5 63.9 130.0 62.8C131.5 61.6 133.2 58.5 135.2 57.5C137.3 56.5 140.9 56.5 142.5 56.5C144.1 56.5 143.4 57.2 145.0 57.2C146.6 57.3 149.1 57.4 152.2 56.8C155.4 56.1 159.7 54.1 164.0 53.5C168.3 52.9 174.6 53.7 178.0 53.2C181.4 52.8 181.2 50.8 184.5 51.0C187.8 51.2 194.8 53.3 197.8 54.8C200.7 56.2 200.8 57.6 202.2 59.8C203.7 61.9 205.1 65.3 206.5 67.5C207.9 69.7 209.9 71.6 210.8 73.0C211.6 74.4 211.3 75.2 211.8 76.0C212.2 76.8 212.8 77.6 213.5 77.5C214.2 77.4 215.2 77.5 216.0 75.5C216.8 73.5 218.2 67.5 218.5 65.5C218.8 63.5 218.5 64.2 218.0 63.5C217.5 62.8 215.7 62.3 215.5 61.0C215.3 59.7 217.0 56.7 216.8 55.5C216.5 54.3 214.5 54.4 214.0 53.8C213.5 53.1 213.8 52.2 213.5 51.5C213.2 50.8 212.8 50.2 212.0 49.8C211.2 49.2 209.5 49.1 208.8 48.5C208.0 47.9 207.8 47.2 207.8 46.2C207.8 45.3 209.5 43.3 208.8 43.0C208.0 42.7 204.2 44.5 203.0 44.5C201.8 44.5 201.0 43.5 201.2 43.0C201.5 42.5 204.0 42.2 204.5 41.8C205.0 41.2 204.8 40.6 204.5 40.0C204.2 39.4 204.0 38.8 203.0 38.2C202.0 37.7 199.0 37.5 198.5 36.8C198.0 36.0 200.5 34.7 200.2 33.5C200.0 32.3 197.8 30.4 196.8 29.8C195.7 29.1 194.8 29.6 194.0 29.8C193.2 29.9 192.2 30.2 192.2 30.8C192.3 31.3 193.9 32.3 194.2 33.0C194.6 33.7 194.8 33.6 194.5 34.8C194.2 35.9 193.0 38.8 192.2 40.0C191.5 41.2 190.7 42.1 190.0 41.8C189.3 41.4 188.6 38.6 188.0 37.8C187.4 36.9 187.0 36.9 186.5 36.8C186.0 36.6 185.7 36.2 184.8 36.8C183.8 37.3 181.8 40.5 181.0 40.2C180.2 40.0 180.7 36.5 179.8 35.5C178.8 34.5 176.4 34.8 175.2 34.0C174.1 33.2 173.8 30.9 172.8 30.5C171.7 30.1 169.9 30.7 168.8 31.5C167.6 32.3 167.1 34.8 166.0 35.2C164.9 35.7 162.6 33.7 162.0 34.0C161.4 34.3 162.7 36.5 162.5 37.2C162.3 38.0 162.6 38.5 161.0 38.5C159.4 38.5 154.8 36.9 153.0 37.0C151.2 37.1 151.2 38.7 150.5 39.0C149.8 39.3 149.6 39.5 149.0 39.0C148.4 38.5 147.4 36.5 146.8 35.8C146.1 35.0 145.5 34.7 145.0 34.8C144.5 34.8 143.9 35.2 143.5 36.0C143.1 36.8 143.1 38.9 142.5 39.8C141.9 40.6 140.9 41.1 140.0 41.0C139.1 40.9 137.9 39.4 137.0 39.0C136.1 38.6 135.0 38.8 134.5 38.5C134.0 38.2 134.0 38.4 134.2 37.5C134.5 36.6 136.1 34.5 136.2 33.2C136.4 32.0 135.6 30.9 135.2 30.2C134.9 29.6 134.5 29.5 134.0 29.5C133.5 29.5 132.6 29.8 132.0 30.2C131.4 30.7 130.5 31.5 130.5 32.2C130.5 33.0 132.1 34.2 132.0 35.0C131.9 35.8 130.3 35.7 130.0 36.8C129.7 37.8 131.8 39.8 130.2 41.5C128.7 43.2 122.7 45.0 120.8 47.0C118.8 49.0 119.8 51.9 118.8 53.5C117.7 55.1 115.2 55.3 114.2 56.8C113.3 58.2 114.0 59.9 113.2 62.0C112.5 64.1 110.1 65.7 110.0 69.2Z M179.8 26.5C179.5 26.8 179.2 27.2 179.8 27.5C180.3 27.8 182.4 27.5 183.0 28.5C183.6 29.5 183.2 32.4 183.5 33.2C183.8 34.1 184.1 33.8 184.8 33.5C185.4 33.2 186.8 32.1 187.2 31.5C187.7 30.9 187.6 30.6 187.2 30.0C186.9 29.4 186.2 28.7 185.2 28.0C184.3 27.3 182.4 26.2 181.5 26.0C180.6 25.8 180.0 26.2 179.8 26.5Z M151.5 24.8C150.8 24.0 146.4 26.0 145.5 26.8C144.6 27.5 146.0 28.1 146.0 29.2C146.0 30.4 144.7 33.2 145.2 33.5C145.8 33.8 148.5 32.7 149.5 31.2C150.5 29.8 152.2 25.5 151.5 24.8Z"/><path fill="#4d311e" stroke="#4d311e" stroke-width=".7" stroke-linejoin="round" d="M195.0 46.0C194.4 46.3 194.4 46.8 194.5 47.8C194.6 48.7 195.3 50.8 195.8 51.5C196.2 52.2 196.3 52.2 197.0 52.2C197.7 52.3 199.7 51.5 200.0 51.8C200.3 52.0 198.9 52.9 198.8 53.5C198.6 54.1 198.2 53.9 199.0 55.2C199.8 56.6 202.6 60.5 203.8 61.8C204.9 63.0 205.1 62.8 205.8 62.8C206.4 62.7 207.2 61.5 207.8 61.5C208.2 61.5 208.5 62.0 208.8 62.8C209.0 63.5 208.6 64.7 209.0 65.8C209.4 66.8 210.6 68.3 211.2 69.0C211.9 69.7 212.2 69.9 212.8 70.0C213.3 70.1 214.1 70.0 214.5 69.8C214.9 69.5 215.3 69.5 215.0 68.5C214.7 67.5 213.7 64.9 212.8 63.8C211.8 62.6 210.3 63.1 209.2 61.8C208.2 60.4 206.9 56.9 206.5 55.8C206.1 54.6 206.3 55.0 206.8 54.8C207.2 54.5 208.8 54.4 209.2 54.0C209.7 53.6 209.9 52.7 209.2 52.2C208.6 51.8 206.8 52.1 205.5 51.2C204.2 50.4 203.0 47.9 201.8 47.0C200.5 46.1 199.4 45.9 198.2 45.8C197.1 45.6 195.6 45.7 195.0 46.0Z M187.0 39.2C186.6 38.5 186.7 38.6 186.0 38.8C185.3 38.9 183.8 39.5 183.0 40.2C182.2 41.0 182.1 43.6 181.0 43.5C179.9 43.4 177.2 40.8 176.2 39.8C175.3 38.8 176.1 38.2 175.5 37.5C174.9 36.8 173.1 36.1 172.5 35.2C171.9 34.4 172.1 33.0 171.8 32.5C171.4 32.0 170.8 31.5 170.5 32.0C170.2 32.5 170.6 34.5 169.8 35.8C168.9 37.0 166.8 38.5 165.5 39.2C164.2 40.0 162.9 39.7 162.0 40.5C161.1 41.3 160.9 43.9 160.0 44.0C159.1 44.1 157.6 41.8 156.5 41.0C155.4 40.2 154.4 39.6 153.2 39.5C152.1 39.4 150.8 40.8 149.5 40.5C148.2 40.2 146.2 38.2 145.2 37.8C144.3 37.3 144.2 37.5 144.0 38.0C143.8 38.5 144.1 39.8 143.8 40.5C143.4 41.2 143.0 42.1 142.0 42.5C141.0 42.9 139.0 43.0 138.0 42.8C137.0 42.5 136.7 41.4 135.8 41.2C134.8 41.1 133.1 41.2 132.2 42.0C131.4 42.8 131.4 45.3 130.5 46.0C129.6 46.7 128.0 45.4 127.0 46.0C126.0 46.6 125.5 48.8 124.5 49.8C123.5 50.7 121.3 50.4 120.8 51.5C120.2 52.6 121.3 55.4 121.2 56.5C121.2 57.6 121.1 57.6 120.5 58.2C119.9 58.9 118.1 59.6 117.5 60.5C116.9 61.4 117.4 62.5 117.0 63.5C116.6 64.5 115.7 65.0 115.2 66.2C114.8 67.5 115.0 69.9 114.5 71.0C114.0 72.1 112.8 72.3 112.5 73.0C112.2 73.7 112.1 74.2 112.5 75.0C112.9 75.8 114.8 76.3 115.0 77.8C115.2 79.2 113.3 82.6 113.5 83.8C113.7 84.9 115.5 84.6 116.2 84.5C117.0 84.4 117.6 84.2 118.0 83.2C118.4 82.3 118.2 80.5 118.8 79.0C119.3 77.5 120.5 76.5 121.2 74.5C122.0 72.5 122.0 69.8 123.5 67.0C125.0 64.2 127.8 59.8 130.0 57.8C132.2 55.7 133.2 55.1 137.0 54.8C140.8 54.4 147.4 56.2 152.8 55.8C158.1 55.2 165.8 52.4 169.2 51.8C172.8 51.1 172.3 52.3 173.8 52.0C175.2 51.7 176.0 50.2 178.0 49.8C180.0 49.2 184.3 49.3 186.0 49.0C187.7 48.7 187.8 49.0 188.2 48.0C188.7 47.0 188.7 44.7 188.5 43.2C188.3 41.8 187.4 40.0 187.0 39.2Z"/><path fill="#351f13" stroke="#351f13" stroke-width=".7" stroke-linejoin="round" d="M116.0 68.8C115.6 69.2 115.0 72.0 115.2 73.2C115.5 74.5 117.1 77.0 117.5 76.5C117.9 76.0 118.0 71.5 117.8 70.2C117.5 69.0 116.4 68.2 116.0 68.8Z M163.0 47.8C162.2 46.0 158.8 43.5 157.0 42.2C155.2 41.0 153.6 39.9 152.2 40.0C150.9 40.1 149.8 42.5 149.0 43.0C148.2 43.5 148.2 43.3 147.8 43.0C147.2 42.7 146.5 41.3 146.0 41.0C145.5 40.7 146.2 40.3 145.0 41.0C143.8 41.7 140.8 44.3 138.8 45.2C136.7 46.2 134.1 45.9 132.5 46.8C130.9 47.6 129.8 49.7 129.2 50.5C128.7 51.3 128.6 51.5 129.2 51.8C129.9 52.0 130.9 51.3 133.0 51.8C135.1 52.2 139.8 54.0 142.0 54.2C144.2 54.5 143.7 53.6 146.0 53.5C148.3 53.4 153.4 53.9 156.0 53.8C158.6 53.6 160.3 53.8 161.5 52.8C162.7 51.8 163.8 49.5 163.0 47.8Z M168.2 38.2C167.5 38.8 168.3 41.0 167.8 41.8C167.2 42.5 164.9 41.5 164.8 42.8C164.6 44.0 166.4 47.9 167.0 49.0C167.6 50.1 167.6 49.5 168.2 49.2C168.9 49.0 170.2 47.5 171.0 47.5C171.8 47.5 172.6 49.2 173.2 49.5C173.9 49.8 174.6 49.9 175.0 49.5C175.4 49.1 176.1 48.2 175.8 47.2C175.4 46.3 173.4 45.4 172.8 44.0C172.1 42.6 172.8 39.7 172.0 38.8C171.2 37.8 169.0 37.8 168.2 38.2Z"/>
        <g class="pt-mid"><g mask="url(#pt-mask-mid)"><use href="#pt-skin"/></g><g class="pt-eye"><clipPath id="pt-eyeclip-r"><path d="M134.8 106.7C134.7 106.5 135.4 106.3 135.8 106.0C136.2 105.7 136.5 105.5 137.1 105.2C137.7 104.8 138.3 104.4 139.3 104.1C140.3 103.8 141.6 103.5 142.8 103.5C144.0 103.4 145.2 103.4 146.4 103.7C147.6 103.9 149.1 104.4 150.2 104.9C151.3 105.4 152.3 106.2 153.0 106.7C153.7 107.2 154.3 107.6 154.3 107.8C154.4 108.1 153.8 108.0 153.3 108.0C152.7 108.1 151.9 108.0 150.9 108.1C149.9 108.2 148.6 108.3 147.5 108.4C146.4 108.5 145.2 108.7 144.0 108.7C142.9 108.7 141.5 108.7 140.5 108.6C139.5 108.5 138.8 108.3 138.2 108.1C137.5 107.9 137.0 107.8 136.5 107.5C135.9 107.3 134.9 107.0 134.8 106.7Z"/></clipPath><path class="pt-white" d="M134.8 106.7C134.7 106.5 135.4 106.3 135.8 106.0C136.2 105.7 136.5 105.5 137.1 105.2C137.7 104.8 138.3 104.4 139.3 104.1C140.3 103.8 141.6 103.5 142.8 103.5C144.0 103.4 145.2 103.4 146.4 103.7C147.6 103.9 149.1 104.4 150.2 104.9C151.3 105.4 152.3 106.2 153.0 106.7C153.7 107.2 154.3 107.6 154.3 107.8C154.4 108.1 153.8 108.0 153.3 108.0C152.7 108.1 151.9 108.0 150.9 108.1C149.9 108.2 148.6 108.3 147.5 108.4C146.4 108.5 145.2 108.7 144.0 108.7C142.9 108.7 141.5 108.7 140.5 108.6C139.5 108.5 138.8 108.3 138.2 108.1C137.5 107.9 137.0 107.8 136.5 107.5C135.9 107.3 134.9 107.0 134.8 106.7Z"/><g clip-path="url(#pt-eyeclip-r)"><g class="pt-iris"><circle cx="143.5" cy="105.6" r="4.3" fill="url(#pt-irisfill)" class="pt-irisc"/><circle cx="143.5" cy="105.6" r="1.9" class="pt-pupil"/><circle cx="142.1" cy="104.2" r="0.8" class="pt-glint"/></g><path class="pt-lidshadow" d="M134.8 106.7C135.0 106.6 135.4 106.3 135.8 106.0C136.2 105.7 136.5 105.5 137.1 105.2C137.7 104.8 138.3 104.4 139.3 104.1C140.3 103.8 141.6 103.5 142.8 103.5C144.0 103.4 145.2 103.4 146.4 103.7C147.6 103.9 149.1 104.4 150.2 104.9C151.3 105.4 152.3 106.2 153.0 106.7C153.7 107.2 154.1 107.6 154.3 107.8"/></g><path class="pt-lower" d="M154.3 107.8C154.1 107.9 153.8 108.0 153.3 108.0C152.7 108.1 151.9 108.0 150.9 108.1C149.9 108.2 148.6 108.3 147.5 108.4C146.4 108.5 145.2 108.7 144.0 108.7C142.9 108.7 141.5 108.7 140.5 108.6C139.5 108.5 138.8 108.3 138.2 108.1C137.5 107.9 137.0 107.8 136.5 107.5C135.9 107.3 135.1 106.8 134.8 106.7"/><path class="pt-upper" d="M134.8 106.7C135.0 106.6 135.4 106.3 135.8 106.0C136.2 105.7 136.5 105.5 137.1 105.2C137.7 104.8 138.3 104.4 139.3 104.1C140.3 103.8 141.6 103.5 142.8 103.5C144.0 103.4 145.2 103.4 146.4 103.7C147.6 103.9 149.1 104.4 150.2 104.9C151.3 105.4 152.3 106.2 153.0 106.7C153.7 107.2 154.1 107.6 154.3 107.8"/></g><g class="pt-lid" style="transform-origin:144.0px 103.5px"><path fill="#9a6d5a" d="M134.8 106.7C134.7 106.5 135.4 106.3 135.8 106.0C136.2 105.7 136.5 105.5 137.1 105.2C137.7 104.8 138.3 104.4 139.3 104.1C140.3 103.8 141.6 103.5 142.8 103.5C144.0 103.4 145.2 103.4 146.4 103.7C147.6 103.9 149.1 104.4 150.2 104.9C151.3 105.4 152.3 106.2 153.0 106.7C153.7 107.2 154.3 107.6 154.3 107.8C154.4 108.1 153.8 108.0 153.3 108.0C152.7 108.1 151.9 108.0 150.9 108.1C149.9 108.2 148.6 108.3 147.5 108.4C146.4 108.5 145.2 108.7 144.0 108.7C142.9 108.7 141.5 108.7 140.5 108.6C139.5 108.5 138.8 108.3 138.2 108.1C137.5 107.9 137.0 107.8 136.5 107.5C135.9 107.3 134.9 107.0 134.8 106.7Z"/><path class="pt-lash" d="M154.3 107.8C154.1 107.9 153.8 108.0 153.3 108.0C152.7 108.1 151.9 108.0 150.9 108.1C149.9 108.2 148.6 108.3 147.5 108.4C146.4 108.5 145.2 108.7 144.0 108.7C142.9 108.7 141.5 108.7 140.5 108.6C139.5 108.5 138.8 108.3 138.2 108.1C137.5 107.9 137.0 107.8 136.5 107.5C135.9 107.3 135.1 106.8 134.8 106.7"/></g><g class="pt-eye"><clipPath id="pt-eyeclip-l"><path d="M195.9 106.4C196.0 106.1 195.3 106.0 195.0 105.7C194.6 105.5 194.3 105.2 193.6 104.9C193.0 104.6 192.3 104.1 191.3 103.8C190.3 103.6 189.0 103.3 187.8 103.2C186.6 103.2 185.4 103.3 184.1 103.5C182.9 103.8 181.4 104.4 180.3 104.9C179.2 105.5 178.2 106.2 177.5 106.7C176.8 107.3 176.2 107.8 176.2 108.1C176.1 108.3 176.7 108.2 177.3 108.3C177.9 108.3 178.7 108.3 179.6 108.4C180.6 108.5 181.9 108.6 183.0 108.7C184.2 108.8 185.5 109.0 186.7 109.0C187.9 109.0 189.3 108.9 190.3 108.7C191.2 108.6 192.0 108.3 192.7 108.1C193.4 107.9 193.8 107.7 194.4 107.4C194.9 107.2 195.8 106.7 195.9 106.4Z"/></clipPath><path class="pt-white" d="M195.9 106.4C196.0 106.1 195.3 106.0 195.0 105.7C194.6 105.5 194.3 105.2 193.6 104.9C193.0 104.6 192.3 104.1 191.3 103.8C190.3 103.6 189.0 103.3 187.8 103.2C186.6 103.2 185.4 103.3 184.1 103.5C182.9 103.8 181.4 104.4 180.3 104.9C179.2 105.5 178.2 106.2 177.5 106.7C176.8 107.3 176.2 107.8 176.2 108.1C176.1 108.3 176.7 108.2 177.3 108.3C177.9 108.3 178.7 108.3 179.6 108.4C180.6 108.5 181.9 108.6 183.0 108.7C184.2 108.8 185.5 109.0 186.7 109.0C187.9 109.0 189.3 108.9 190.3 108.7C191.2 108.6 192.0 108.3 192.7 108.1C193.4 107.9 193.8 107.7 194.4 107.4C194.9 107.2 195.8 106.7 195.9 106.4Z"/><g clip-path="url(#pt-eyeclip-l)"><g class="pt-iris"><circle cx="187.4" cy="105.7" r="4.3" fill="url(#pt-irisfill)" class="pt-irisc"/><circle cx="187.4" cy="105.7" r="2.0" class="pt-pupil"/><circle cx="186.1" cy="104.3" r="0.8" class="pt-glint"/></g><path class="pt-lidshadow" d="M195.9 106.4C195.8 106.3 195.3 106.0 195.0 105.7C194.6 105.5 194.3 105.2 193.6 104.9C193.0 104.6 192.3 104.1 191.3 103.8C190.3 103.6 189.0 103.3 187.8 103.2C186.6 103.2 185.4 103.3 184.1 103.5C182.9 103.8 181.4 104.4 180.3 104.9C179.2 105.5 178.2 106.2 177.5 106.7C176.8 107.3 176.4 107.9 176.2 108.1"/></g><path class="pt-lower" d="M176.2 108.1C176.3 108.1 176.7 108.2 177.3 108.3C177.9 108.3 178.7 108.3 179.6 108.4C180.6 108.5 181.9 108.6 183.0 108.7C184.2 108.8 185.5 109.0 186.7 109.0C187.9 109.0 189.3 108.9 190.3 108.7C191.2 108.6 192.0 108.3 192.7 108.1C193.4 107.9 193.8 107.7 194.4 107.4C194.9 107.2 195.7 106.6 195.9 106.4"/><path class="pt-upper" d="M195.9 106.4C195.8 106.3 195.3 106.0 195.0 105.7C194.6 105.5 194.3 105.2 193.6 104.9C193.0 104.6 192.3 104.1 191.3 103.8C190.3 103.6 189.0 103.3 187.8 103.2C186.6 103.2 185.4 103.3 184.1 103.5C182.9 103.8 181.4 104.4 180.3 104.9C179.2 105.5 178.2 106.2 177.5 106.7C176.8 107.3 176.4 107.9 176.2 108.1"/></g><g class="pt-lid" style="transform-origin:186.6px 103.2px"><path fill="#ba846e" d="M195.9 106.4C196.0 106.1 195.3 106.0 195.0 105.7C194.6 105.5 194.3 105.2 193.6 104.9C193.0 104.6 192.3 104.1 191.3 103.8C190.3 103.6 189.0 103.3 187.8 103.2C186.6 103.2 185.4 103.3 184.1 103.5C182.9 103.8 181.4 104.4 180.3 104.9C179.2 105.5 178.2 106.2 177.5 106.7C176.8 107.3 176.2 107.8 176.2 108.1C176.1 108.3 176.7 108.2 177.3 108.3C177.9 108.3 178.7 108.3 179.6 108.4C180.6 108.5 181.9 108.6 183.0 108.7C184.2 108.8 185.5 109.0 186.7 109.0C187.9 109.0 189.3 108.9 190.3 108.7C191.2 108.6 192.0 108.3 192.7 108.1C193.4 107.9 193.8 107.7 194.4 107.4C194.9 107.2 195.8 106.7 195.9 106.4Z"/><path class="pt-lash" d="M176.2 108.1C176.3 108.1 176.7 108.2 177.3 108.3C177.9 108.3 178.7 108.3 179.6 108.4C180.6 108.5 181.9 108.6 183.0 108.7C184.2 108.8 185.5 109.0 186.7 109.0C187.9 109.0 189.3 108.9 190.3 108.7C191.2 108.6 192.0 108.3 192.7 108.1C193.4 107.9 193.8 107.7 194.4 107.4C194.9 107.2 195.7 106.6 195.9 106.4"/></g></g>
        <g class="pt-nose"><g mask="url(#pt-mask-nose)"><use href="#pt-skin"/></g></g>
        <g class="pt-mid2"><g class="pt-cig"><g class="pt-cig-drop"><rect class="pt-cig-filter" x="179.68" y="149.19" width="4.80" height="4.80"/><rect class="pt-cig-filter" x="184.39" y="149.19" width="4.80" height="4.80"/><rect class="pt-cig-filter" x="189.09" y="153.89" width="4.80" height="4.80"/><rect class="pt-cig-paper" x="193.79" y="153.89" width="4.80" height="4.80"/><rect class="pt-cig-paper" x="198.50" y="153.89" width="4.80" height="4.80"/><rect class="pt-cig-paper" x="203.20" y="158.60" width="4.80" height="4.80"/><rect class="pt-cig-paper" x="207.90" y="158.60" width="4.80" height="4.80"/><rect class="pt-cig-ash" x="212.61" y="158.60" width="4.80" height="4.80"/><rect class="pt-cig-ember" x="217.31" y="158.60" width="4.80" height="4.80"/><g class="pt-smoke" style="--s:0"><rect class="pt-smoke-px" x="217.31" y="149.19" width="4.80" height="4.80"/></g><g class="pt-smoke" style="--s:1"><rect class="pt-smoke-px" x="222.01" y="139.78" width="4.80" height="4.80"/></g><g class="pt-smoke" style="--s:2"><rect class="pt-smoke-px" x="217.31" y="130.38" width="4.80" height="4.80"/></g><g class="pt-smoke" style="--s:3"><rect class="pt-smoke-px" x="222.01" y="120.97" width="4.80" height="4.80"/></g></g></g><g class="pt-shades"><g class="pt-shades-drop"><rect x="134.6" y="96.7" width="61.4" height="5.4"/><rect x="138.6" y="101.7" width="22.8" height="9.9"/><rect x="141.1" y="111.6" width="17.8" height="5.0"/><rect x="169.3" y="101.7" width="22.8" height="9.9"/><rect x="171.8" y="111.6" width="17.8" height="5.0"/><rect class="pt-glint" x="143.5" y="102.7" width="2.7" height="2.7"/><rect class="pt-glint" x="146.0" y="107.6" width="2.7" height="2.7"/><rect class="pt-glint" x="174.2" y="102.7" width="2.7" height="2.7"/><rect class="pt-glint" x="176.7" y="107.6" width="2.7" height="2.7"/></g></g></g>
      </g>
    </g>
  </g>
  <circle class="pt-rim" cx="167" cy="150" r="138"/>
</svg>